<svg width="23" height="33" viewBox="0 0 23 33" fill="none" xmlns="http://www.w3.org/2000/svg">
<path d="M5.86775 16.6137C6.06754 16.5285 6.28239 16.4842 6.4996 16.4834C6.71681 16.4826 6.93197 16.5254 7.13237 16.6092C7.33277 16.693 7.51433 16.8161 7.66633 16.9713C7.81833 17.1264 7.93767 17.3105 8.01731 17.5126C8.09695 17.7147 8.13527 17.9307 8.13 18.1478C8.12472 18.365 8.07597 18.5789 7.98662 18.7768C7.89727 18.9748 7.76913 19.1529 7.60978 19.3005C7.45043 19.4481 7.2631 19.5623 7.05888 19.6363C5.97263 20.0642 5.04034 20.8093 4.38332 21.7744C3.7263 22.7395 3.37495 23.88 3.375 25.0475V27.875C3.375 28.306 3.5462 28.7193 3.85095 29.024C4.1557 29.3288 4.56902 29.5 5 29.5H18C18.431 29.5 18.8443 29.3288 19.149 29.024C19.4538 28.7193 19.625 28.306 19.625 27.875V25.1986C19.6252 23.9936 19.2592 22.8171 18.5754 21.8248C17.8917 20.8326 16.9226 20.0716 15.7965 19.6428C15.591 19.5714 15.4019 19.4596 15.2404 19.3138C15.079 19.1681 14.9484 18.9914 14.8565 18.7943C14.7646 18.5971 14.7131 18.3835 14.7053 18.1662C14.6975 17.9488 14.7333 17.7321 14.8108 17.5288C14.8883 17.3255 15.0058 17.1399 15.1563 16.9829C15.3069 16.8259 15.4874 16.7007 15.6872 16.6148C15.887 16.5288 16.1021 16.4839 16.3196 16.4826C16.5371 16.4813 16.7527 16.5237 16.9535 16.6072C18.6949 17.2705 20.1936 18.4473 21.2511 19.9816C22.3085 21.5158 22.8749 23.3352 22.875 25.1986V27.875C22.875 29.1679 22.3614 30.4079 21.4471 31.3221C20.5329 32.2364 19.2929 32.75 18 32.75H5C3.70707 32.75 2.46709 32.2364 1.55285 31.3221C0.638615 30.4079 0.125 29.1679 0.125 27.875L0.125 25.0475C0.125224 23.2278 0.673075 21.4502 1.69729 19.946C2.7215 18.4419 4.17466 17.2808 5.86775 16.6137V16.6137ZM11.5 0.25C13.2239 0.25 14.8772 0.93482 16.0962 2.15381C17.3152 3.37279 18 5.02609 18 6.75V10C18 11.7239 17.3152 13.3772 16.0962 14.5962C14.8772 15.8152 13.2239 16.5 11.5 16.5C9.77609 16.5 8.12279 15.8152 6.90381 14.5962C5.68482 13.3772 5 11.7239 5 10V6.75C5 5.02609 5.68482 3.37279 6.90381 2.15381C8.12279 0.93482 9.77609 0.25 11.5 0.25V0.25ZM11.5 3.5C10.638 3.5 9.8114 3.84241 9.2019 4.4519C8.59241 5.0614 8.25 5.88805 8.25 6.75V10C8.25 10.862 8.59241 11.6886 9.2019 12.2981C9.8114 12.9076 10.638 13.25 11.5 13.25C12.362 13.25 13.1886 12.9076 13.7981 12.2981C14.4076 11.6886 14.75 10.862 14.75 10V6.75C14.75 5.88805 14.4076 5.0614 13.7981 4.4519C13.1886 3.84241 12.362 3.5 11.5 3.5Z" fill="#373B58"/>
</svg>
