<svg width="39" height="39" viewBox="0 0 39 39" fill="none" xmlns="http://www.w3.org/2000/svg">
<path d="M23.2343 6.5H11.375C10.944 6.5 10.5307 6.6712 10.226 6.97595C9.9212 7.2807 9.75 7.69402 9.75 8.125V30.875C9.75 31.306 9.9212 31.7193 10.226 32.024C10.5307 32.3288 10.944 32.5 11.375 32.5H27.625C28.056 32.5 28.4693 32.3288 28.774 32.024C29.0788 31.7193 29.25 31.306 29.25 30.875V11.3116L23.2343 6.5ZM11.375 3.25H24.375L32.5 9.75V30.875C32.5 32.1679 31.9864 33.4079 31.0721 34.3221C30.1579 35.2364 28.9179 35.75 27.625 35.75H11.375C10.0821 35.75 8.84209 35.2364 7.92785 34.3221C7.01361 33.4079 6.5 32.1679 6.5 30.875V8.125C6.5 6.83207 7.01361 5.59209 7.92785 4.67785C8.84209 3.76361 10.0821 3.25 11.375 3.25V3.25Z" fill="#373B58"/>
</svg>
