<svg xmlns="http://www.w3.org/2000/svg" width="39" height="39" fill="none" viewBox="0 0 39 39"><path fill="#373B58" d="M32.5 32.5V14.8395L19.5 7.03946L6.5 14.8395V32.5H13V28.0312C13 26.3073 13.6848 24.654 14.9038 23.435C16.1228 22.216 17.7761 21.5312 19.5 21.5312C21.2239 21.5312 22.8772 22.216 24.0962 23.435C25.3152 24.654 26 26.3073 26 28.0312V32.5H32.5ZM22.75 35.75V28.0312C22.75 27.1693 22.4076 26.3426 21.7981 25.7331C21.1886 25.1236 20.362 24.7812 19.5 24.7812C18.638 24.7812 17.8114 25.1236 17.2019 25.7331C16.5924 26.3426 16.25 27.1693 16.25 28.0312V35.75H6.5C5.63805 35.75 4.8114 35.4075 4.2019 34.7981C3.59241 34.1886 3.25 33.3619 3.25 32.5V14.8395C3.24999 14.2782 3.39532 13.7266 3.67184 13.2382C3.94835 12.7498 4.34663 12.3413 4.82788 12.0526L17.8279 4.25258C18.333 3.94952 18.911 3.78943 19.5 3.78943C20.089 3.78943 20.667 3.94952 21.1721 4.25258L34.1721 12.0526C34.6534 12.3413 35.0516 12.7498 35.3282 13.2382C35.6047 13.7266 35.75 14.2782 35.75 14.8395V32.5C35.75 33.3619 35.4076 34.1886 34.7981 34.7981C34.1886 35.4075 33.362 35.75 32.5 35.75H22.75Z"/></svg>