<svg xmlns="http://www.w3.org/2000/svg" width="417" height="501" fill="none" viewBox="0 0 417 501"><rect width="176.853" height="501" x="24.549" fill="#22243D"/><path fill="#AE8025" stroke="#AE8025" stroke-linejoin="round" stroke-width=".718" d="M109.047 282.658V260.652L100.094 265.614V287.512L109.047 282.658Z"/><path fill="#EAB754" stroke="#EAB754" stroke-linejoin="round" stroke-width=".718" d="M89.8459 261.947L100.094 265.614V287.404L89.8459 283.629V261.947Z"/><path fill="#89FA6E" stroke="#89FA6E" stroke-linejoin="round" stroke-width=".718" d="M98.475 262.594L131.376 244.795L97.0727 232.282L64.4956 250.189L98.475 262.594Z"/><path fill="#2C8F14" stroke="#2C8F14" stroke-linejoin="round" stroke-width=".718" d="M98.4746 274.676V262.594L131.267 244.795V256.877L98.4746 274.676Z"/><path fill="#6ED356" stroke="#6ED356" stroke-linejoin="round" stroke-width=".718" d="M98.475 274.675V262.594L64.4956 250.188V262.27L98.475 274.675Z"/><path fill="#89FA6E" stroke="#89FA6E" stroke-linejoin="round" stroke-width=".513" d="M98.3914 249.964L121.775 237.136L97.3887 228.291L74.0957 241.094L98.3914 249.964Z"/><path fill="#52D033" stroke="#52D033" stroke-linejoin="round" stroke-width=".513" d="M98.3921 258.602V249.964L121.839 237.237V245.876L98.3921 258.602Z"/><path fill="#6ED356" stroke="#6ED356" stroke-linejoin="round" stroke-width=".513" d="M98.3914 258.603V249.964L74.0957 241.094V249.733L98.3914 258.603Z"/><path fill="#94FF7B" stroke="#94FF7B" stroke-linejoin="round" stroke-width=".334" d="M98.7641 241.111L114.084 232.824L98.1111 226.997L82.9417 235.335L98.7641 241.111Z"/><path fill="#2F6721" stroke="#2F6721" stroke-linejoin="round" stroke-width=".334" d="M98.7644 246.737V241.112L114.034 232.824V238.449L98.7644 246.737Z"/><path fill="#6ED356" stroke="#6ED356" stroke-linejoin="round" stroke-width=".334" d="M98.7641 246.737V241.111L82.9417 235.335V240.961L98.7641 246.737Z"/><path fill="#DEA63A" stroke="#DEA63A" stroke-linejoin="round" stroke-width="1.002" d="M143.878 285.139V254.41L131.375 261.339V291.917L143.878 285.139Z"/><path fill="#F3C160" stroke="#F3C160" stroke-linejoin="round" stroke-width="1.002" d="M117.065 256.218L131.375 261.339V291.767L117.065 286.495V256.218Z"/><path fill="#72ED55" stroke="#72ED55" stroke-linejoin="round" stroke-width="1.002" d="M129.115 257.122L175.058 232.268L127.157 214.795L81.6665 239.8L129.115 257.122Z"/><path fill="#4AD529" stroke="#4AD529" stroke-linejoin="round" stroke-width="1.002" d="M129.115 273.993V257.122L174.907 232.268V249.139L129.115 273.993Z"/><path fill="#77FF57" stroke="#77FF57" stroke-linejoin="round" stroke-width="1.002" d="M129.115 273.993V257.122L81.6665 239.8V256.67L129.115 273.993Z"/><path fill="#72ED55" stroke="#72ED55" stroke-linejoin="round" stroke-width=".716" d="M129.001 239.486L161.653 221.573L127.6 209.221L95.0742 227.1L129.001 239.486Z"/><path fill="#52D033" stroke="#52D033" stroke-linejoin="round" stroke-width=".716" d="M129.001 251.549V239.486L161.742 221.715V233.778L129.001 251.549Z"/><path fill="#77FF57" stroke="#77FF57" stroke-linejoin="round" stroke-width=".716" d="M129.001 251.549V239.486L95.0742 227.1V239.163L129.001 251.549Z"/><path fill="#94FF7B" stroke="#94FF7B" stroke-linejoin="round" stroke-width=".467" d="M129.52 227.123L150.913 215.55L128.608 207.414L107.426 219.057L129.52 227.123Z"/><path fill="#4AD429" stroke="#4AD429" stroke-linejoin="round" stroke-width=".467" d="M129.521 234.979V227.123L150.844 215.55V223.406L129.521 234.979Z"/><path fill="#77FF57" stroke="#77FF57" stroke-linejoin="round" stroke-width=".467" d="M129.52 234.979V227.123L107.426 219.057V226.913L129.52 234.979Z"/><path fill="#FFC148" stroke="#FFC148" stroke-linejoin="round" stroke-width="1.002" d="M245.856 425.527L245.856 417.091L396.637 334.847L396.637 343.433L245.856 425.527Z"/><path fill="#66D84B" stroke="#66D84A" stroke-width="1.002" d="M245.856 417.091L54.8567 347.651L204.885 265.708L396.186 334.696L245.856 417.091Z"/><path fill="#FFD583" stroke="#FFD583" stroke-linejoin="round" stroke-width="1.002" d="M54.5552 347.651V356.086L245.856 425.527V417.092L54.5552 347.651Z"/><g opacity=".5"><path stroke="#fff" stroke-linejoin="round" stroke-width="1.002" d="M276.434 371.752L350.243 331.534L207.295 279.416L133.034 319.935L276.434 371.752Z"/><path stroke="#fff" stroke-linejoin="round" stroke-width="1.002" d="M276.434 367.836L350.243 327.617L207.295 275.499L133.034 316.019L276.434 367.836Z"/></g><path fill="#D1BFFF" stroke="#D1BFFF" stroke-linejoin="round" stroke-width="1.002" d="M133.184 282.729L276.584 334.396V371.903L133.184 319.935V282.729Z"/><path fill="#B598FF" stroke="#B598FF" stroke-linejoin="round" stroke-width="1.002" d="M276.584 334.245V371.752L350.243 331.534V295.533L276.584 334.245Z"/><path fill="#7252C6" stroke="#7252C6" stroke-linejoin="round" stroke-width="1.002" d="M350.243 331.684V327.617L276.584 367.685V371.903L350.243 331.684Z"/><path fill="#A8F" stroke="#A8F" stroke-linejoin="round" stroke-width="1.002" d="M276.584 371.903V367.836L133.184 316.019V319.935L276.584 371.903Z"/><path stroke="#DDCFFF" stroke-linejoin="round" stroke-width="1.002" d="M270.86 334.095L354.761 289.96L208.499 236.636L126.707 281.374L270.86 334.095Z"/><path fill="#8B64EE" stroke="#8B64EE" stroke-linejoin="round" stroke-width="1.002" d="M270.861 337.107V334.094L354.762 289.959V292.972L270.861 337.107Z"/><path fill="#B496FF" stroke="#B496FF" stroke-linejoin="round" stroke-width="1.002" d="M270.86 337.107V334.095L126.707 281.374V284.386L270.86 337.107Z"/><path stroke="#fff" stroke-linejoin="round" stroke-width="1.002" d="M204.582 371.149L232.298 355.785L141.92 323.098L114.204 338.462L204.582 371.149Z"/><path fill="#7149D7" stroke="#8B64EE" stroke-linejoin="round" stroke-width="1.002" d="M314.092 286.344L270.861 334.094L354.762 289.96L314.092 286.344Z"/><path fill="#9877EC" stroke="#9877EC" stroke-linejoin="round" stroke-width="1.002" d="M174.758 234.678L314.091 286.344L270.86 334.245L126.707 281.373L174.758 234.678Z"/><path fill="#A886FF" stroke="#A886FF" stroke-linejoin="round" stroke-width="1.002" d="M354.761 289.959L314.09 286.194L174.908 234.678L208.498 236.636L354.761 289.959Z"/><path fill="#8C5FFF" stroke="#8C5FFF" stroke-linejoin="round" stroke-width="1.002" d="M137.101 288.303L224.467 320.086L202.023 338.463L115.109 306.378L137.101 288.303Z"/><path fill="#F0EAFF" stroke="#F0EAFF" stroke-linejoin="round" stroke-width="1.002" d="M204.584 367.233L232.3 351.869L141.921 319.182L114.205 334.848L204.584 367.233Z"/><path fill="#A8F" stroke="#A8F" stroke-linejoin="round" stroke-width="1.002" d="M232.149 352.02V355.839L204.584 371.15V367.384L232.149 352.02Z"/><path fill="#D2C0FF" stroke="#D2C0FF" stroke-linejoin="round" stroke-width="1.002" d="M114.205 334.848L204.282 367.234V370.999L114.205 338.312V334.848Z"/><path fill="#8962EA" stroke="#8962EA" stroke-linejoin="round" stroke-width="1.002" d="M122.94 334.697V309.391L124.748 310.144V333.704L122.94 334.697Z"/><path fill="#B091FF" stroke="#B091FF" stroke-linejoin="round" stroke-width="1.002" d="M120.38 333.944L122.94 334.697V309.391L120.38 308.488V333.944Z"/><path fill="#8962EA" stroke="#8962EA" stroke-linejoin="round" stroke-width="1.002" d="M205.786 363.919V335.45L204.28 336.655L204.431 364.823L205.786 363.919Z"/><path fill="#B091FF" stroke="#B091FF" stroke-linejoin="round" stroke-width="1.002" d="M201.569 363.919L204.431 364.823L204.281 336.655L202.021 338.463H201.569V363.919Z"/><path fill="#fff" stroke="#fff" stroke-linejoin="round" stroke-width="1.002" d="M218.893 318.128L224.467 320.086L202.023 338.463L196.6 336.354L218.893 318.128Z"/><path stroke="#8C5FFF" stroke-linejoin="round" stroke-width="1.002" d="M213.321 316.17L218.895 318.128L196.601 336.354L191.178 334.396L213.321 316.17Z"/><path fill="#fff" stroke="#fff" stroke-linejoin="round" stroke-width="1.002" d="M207.898 314.211L213.471 316.17L191.178 334.396L185.604 332.438L207.898 314.211Z"/><path stroke="#8C5FFF" stroke-linejoin="round" stroke-width="1.002" d="M202.324 312.253L207.897 314.211L185.604 332.438L180.332 330.329L202.324 312.253Z"/><path fill="#fff" stroke="#fff" stroke-linejoin="round" stroke-width="1.002" d="M196.932 310.144L202.475 312.102L180.302 330.329L174.759 328.371L196.932 310.144Z"/><path stroke="#8C5FFF" stroke-linejoin="round" stroke-width="1.002" d="M191.328 308.035L196.901 310.144L174.88 328.22L169.637 326.262L191.328 308.035Z"/><path fill="#fff" stroke="#fff" stroke-linejoin="round" stroke-width="1.002" d="M185.754 306.077L191.327 308.035L169.486 326.262L163.611 324.153L185.754 306.077Z"/><path stroke="#8C5FFF" stroke-linejoin="round" stroke-width="1.002" d="M180.181 304.119L185.755 306.077L163.612 324.153L158.34 322.044L180.181 304.119Z"/><path fill="#fff" stroke="#fff" stroke-linejoin="round" stroke-width="1.002" d="M174.758 302.161L180.331 304.119L158.189 322.044L152.766 320.237L174.758 302.161Z"/><path stroke="#8C5FFF" stroke-linejoin="round" stroke-width="1.002" d="M169.186 300.203L174.759 302.161L152.767 320.086L147.344 318.128L169.186 300.203Z"/><path fill="#fff" stroke="#fff" stroke-linejoin="round" stroke-width="1.002" d="M163.792 298.094L169.336 300.052L147.344 318.128L141.77 316.17L163.792 298.094Z"/><path stroke="#8C5FFF" stroke-linejoin="round" stroke-width="1.002" d="M158.189 295.985L163.762 298.094L141.741 316.17L136.498 314.211L158.189 295.985Z"/><path fill="#fff" stroke="#fff" stroke-linejoin="round" stroke-width="1.002" d="M152.465 294.027L158.038 295.985L136.498 314.211L130.624 311.952L152.465 294.027Z"/><path stroke="#8C5FFF" stroke-linejoin="round" stroke-width="1.002" d="M146.892 292.069L152.465 294.027L130.473 311.952L125.051 309.994L146.892 292.069Z"/><path fill="#fff" stroke="#fff" stroke-linejoin="round" stroke-width="1.002" d="M141.5 289.96L147.043 291.918L125.051 309.994L119.478 308.035L141.5 289.96Z"/><path fill="#E7DDFF" stroke="#E7DDFF" stroke-linejoin="round" stroke-width="1.002" d="M293.604 328.37L307.613 320.537L308.065 346.446L293.604 353.977V328.37Z"/><path fill="#7149D7" stroke="#7149D7" stroke-linejoin="round" stroke-width="1.002" d="M292.399 327.918L293.604 328.521V353.978L292.399 353.375V327.918Z"/><path fill="#5A37B5" stroke="#5A37B5" stroke-linejoin="round" stroke-width="1.002" d="M292.399 327.918L293.604 328.521L308.065 320.538L306.86 320.086L292.399 327.918Z"/><path fill="#5A37B5" stroke="#5A37B5" stroke-linejoin="round" stroke-width="1.002" d="M293.604 334.546V335.751L308.065 327.768L306.86 327.316L293.604 334.546Z"/><path fill="#5A37B5" stroke="#5A37B5" stroke-linejoin="round" stroke-width="1.002" d="M307.011 321.291L308.065 320.688V346.446L307.011 345.843V321.291Z"/><path fill="#5A37B5" stroke="#5A37B5" stroke-linejoin="round" stroke-width="1.002" d="M293.754 353.977L307.913 346.446L307.01 345.843L293.754 352.772V353.977Z"/><path fill="#7149D7" stroke="#7149D7" stroke-linejoin="round" stroke-width="1.002" d="M293.604 337.408V335.751L308.065 327.768V329.274L293.604 337.408Z"/><path fill="#7149D7" stroke="#7149D7" stroke-linejoin="round" stroke-width="1.002" d="M300.232 349.381V333.793L301.588 332.973V348.706L300.232 349.381Z"/><path fill="#5A37B5" stroke="#5A37B5" stroke-linejoin="round" stroke-width="1.002" d="M299.48 349.91L300.384 349.325V334.245L299.48 334.684V349.91Z"/><path fill="#E2D8FA" stroke="#E2D8FA" stroke-linejoin="round" stroke-width="1.002" d="M320.871 314.813L334.88 306.98L335.331 332.889L320.871 340.42V314.813Z"/><path fill="#7149D7" stroke="#7149D7" stroke-linejoin="round" stroke-width="1.002" d="M319.667 314.362L320.872 314.964V340.421L319.667 339.818V314.362Z"/><path fill="#5A37B5" stroke="#5A37B5" stroke-linejoin="round" stroke-width="1.002" d="M319.667 314.361L320.872 314.964L335.332 306.98L334.127 306.529L319.667 314.361Z"/><path fill="#5A37B5" stroke="#5A37B5" stroke-linejoin="round" stroke-width="1.002" d="M320.871 320.989V322.194L335.331 314.211L334.126 313.759L320.871 320.989Z"/><path fill="#5A37B5" stroke="#5A37B5" stroke-linejoin="round" stroke-width="1.002" d="M334.278 307.734L335.332 307.131V332.889L334.278 332.286V307.734Z"/><path fill="#5A37B5" stroke="#5A37B5" stroke-linejoin="round" stroke-width="1.002" d="M321.021 340.42L335.181 332.889L334.277 332.286L321.021 339.215V340.42Z"/><path fill="#7149D7" stroke="#7149D7" stroke-linejoin="round" stroke-width="1.002" d="M320.871 323.851V322.194L335.331 314.211V315.717L320.871 323.851Z"/><path fill="#7149D7" stroke="#7149D7" stroke-linejoin="round" stroke-width="1.002" d="M327.499 335.824V320.236L328.855 319.416V335.148L327.499 335.824Z"/><path fill="#5A37B5" stroke="#5A37B5" stroke-linejoin="round" stroke-width="1.002" d="M326.746 336.354L327.649 335.768V320.688L326.746 321.127V336.354Z"/><path fill="#72ED55" stroke="#72ED55" stroke-linejoin="round" stroke-width=".881" d="M213.621 385.475L241.69 395.537L255.195 388.123L227.126 377.928L213.621 385.475Z"/><path fill="#4AD429" stroke="#4AD429" stroke-linejoin="round" stroke-width=".881" d="M241.691 406.129V395.537L255.196 388.123V398.715L241.691 406.129Z"/><path fill="#77FF57" stroke="#77FF57" stroke-linejoin="round" stroke-width=".881" d="M241.69 406.13V395.538L213.621 385.475V396.067L241.69 406.13Z"/><path fill="#89FA6E" stroke="#89FA6E" stroke-linejoin="round" stroke-width=".881" d="M34.0713 314.513L62.1404 324.575L75.6454 317.161L47.5762 306.966L34.0713 314.513Z"/><path fill="#39AD1D" stroke="#39AD1D" stroke-linejoin="round" stroke-width=".881" d="M62.1406 335.167V324.575L75.6456 317.16V327.753L62.1406 335.167Z"/><path fill="#6ED356" stroke="#6ED356" stroke-linejoin="round" stroke-width=".881" d="M62.1404 335.167V324.575L34.0713 314.512V325.105L62.1404 335.167Z"/><path fill="#89FA6E" stroke="#89FA6E" stroke-linejoin="round" stroke-width=".645" d="M41.3005 305.424L61.8439 312.789L71.7279 307.362L51.1846 299.901L41.3005 305.424Z"/><path fill="#39AD1D" stroke="#39AD1D" stroke-linejoin="round" stroke-width=".645" d="M61.8435 320.541V312.789L71.7276 307.362V315.115L61.8435 320.541Z"/><path fill="#6ED356" stroke="#6ED356" stroke-linejoin="round" stroke-width=".645" d="M61.8439 320.541V312.789L41.3005 305.424V313.177L61.8439 320.541Z"/><path fill="#72ED55" stroke="#72ED55" stroke-linejoin="round" stroke-width=".608" d="M221.453 378.618L240.826 385.563L250.147 380.446L230.774 373.409L221.453 378.618Z"/><path fill="#4AD429" stroke="#4AD429" stroke-linejoin="round" stroke-width=".608" d="M240.826 392.874V385.563L250.147 380.446V387.756L240.826 392.874Z"/><path fill="#77FF57" stroke="#77FF57" stroke-linejoin="round" stroke-width=".608" d="M240.826 392.874V385.563L221.453 378.618V385.928L240.826 392.874Z"/><path fill="#72ED55" stroke="#72ED55" stroke-linejoin="round" stroke-width=".67" d="M72.0283 339.894L93.3853 347.551L103.661 341.909L82.3038 334.152L72.0283 339.894Z"/><path fill="#4AD429" stroke="#4AD429" stroke-linejoin="round" stroke-width=".67" d="M93.3855 355.61V347.551L103.661 341.909V349.968L93.3855 355.61Z"/><path fill="#77FF57" stroke="#77FF57" stroke-linejoin="round" stroke-width=".67" d="M93.3853 355.61V347.551L72.0283 339.894V347.954L93.3853 355.61Z"/><path fill="#3C9B26" stroke="#3C9B26" stroke-linejoin="round" stroke-width="1.002" d="M396.637 338.161V334.847L245.856 417.092V420.707L396.637 338.161Z"/><path fill="#AEFF9B" stroke="#AEFF9B" stroke-linejoin="round" stroke-width="1.002" d="M245.855 417.092L54.554 347.651V351.266L245.855 420.707V417.092Z"/><path fill="#DEA63A" stroke="#DEA63A" stroke-linejoin="round" stroke-width="1.002" d="M341.807 428.841V398.112L329.305 405.041V435.619L341.807 428.841Z"/><path fill="#F3C160" stroke="#F3C160" stroke-linejoin="round" stroke-width="1.002" d="M314.996 399.92L329.306 405.041V435.469L314.996 430.196V399.92Z"/><path fill="#72ED55" stroke="#72ED55" stroke-linejoin="round" stroke-width="1.002" d="M327.048 400.823L372.991 375.969L325.09 358.496L279.6 383.501L327.048 400.823Z"/><path fill="#4AD529" stroke="#4AD529" stroke-linejoin="round" stroke-width="1.002" d="M327.048 417.694V400.823L372.84 375.969V392.84L327.048 417.694Z"/><path fill="#77FF57" stroke="#77FF57" stroke-linejoin="round" stroke-width="1.002" d="M327.048 417.694V400.824L279.6 383.501V400.372L327.048 417.694Z"/><path fill="#72ED55" stroke="#72ED55" stroke-linejoin="round" stroke-width=".716" d="M326.931 383.187L359.584 365.274L325.531 352.923L293.005 370.801L326.931 383.187Z"/><path fill="#52D033" stroke="#52D033" stroke-linejoin="round" stroke-width=".716" d="M326.931 395.25V383.187L359.673 365.416V377.479L326.931 395.25Z"/><path fill="#77FF57" stroke="#77FF57" stroke-linejoin="round" stroke-width=".716" d="M326.931 395.25V383.187L293.005 370.801V382.864L326.931 395.25Z"/><path fill="#94FF7B" stroke="#94FF7B" stroke-linejoin="round" stroke-width=".467" d="M327.452 370.825L348.845 359.252L326.54 351.115L305.357 362.759L327.452 370.825Z"/><path fill="#4AD429" stroke="#4AD429" stroke-linejoin="round" stroke-width=".467" d="M327.451 378.681V370.825L348.774 359.252V367.108L327.451 378.681Z"/><path fill="#77FF57" stroke="#77FF57" stroke-linejoin="round" stroke-width=".467" d="M327.452 378.681V370.825L305.357 362.759V370.615L327.452 378.681Z"/><path fill="#72ED55" stroke="#72ED55" stroke-linejoin="round" stroke-width=".881" d="M374.919 351.333L402.989 361.396L416.494 353.981L388.424 343.786L374.919 351.333Z"/><path fill="#4AD429" stroke="#4AD429" stroke-linejoin="round" stroke-width=".881" d="M402.989 371.988V361.395L416.494 353.981V364.573L402.989 371.988Z"/><path fill="#77FF57" stroke="#77FF57" stroke-linejoin="round" stroke-width=".881" d="M402.989 371.988V361.396L374.919 351.333V361.925L402.989 371.988Z"/><path fill="#72ED55" stroke="#72ED55" stroke-linejoin="round" stroke-width=".666" d="M380.746 342.87L401.962 350.476L412.17 344.872L390.954 337.166L380.746 342.87Z"/><path fill="#52D033" stroke="#52D033" stroke-linejoin="round" stroke-width=".666" d="M401.962 358.482V350.476L412.17 344.872V352.878L401.962 358.482Z"/><path fill="#77FF57" stroke="#77FF57" stroke-linejoin="round" stroke-width=".666" d="M401.962 358.482V350.476L380.746 342.87V350.876L401.962 358.482Z"/><path fill="#94FF7B" stroke="#94FF7B" stroke-linejoin="round" stroke-width=".438" d="M386.37 336.702L400.332 341.708L407.05 338.02L393.088 332.948L386.37 336.702Z"/><path fill="#4AD429" stroke="#4AD429" stroke-linejoin="round" stroke-width=".438" d="M400.332 346.977V341.708L407.05 338.02V343.289L400.332 346.977Z"/><path fill="#77FF57" stroke="#77FF57" stroke-linejoin="round" stroke-width=".438" d="M400.332 346.977V341.708L386.37 336.702V341.971L400.332 346.977Z"/><rect width="224.448" height="501" fill="#181A2D"/><mask id="mask0_83_482" width="225" height="501" x="0" y="0" maskUnits="userSpaceOnUse" style="mask-type:alpha"><rect width="224.448" height="501" fill="#D9D9D9"/></mask><g mask="url(#mask0_83_482)"><g opacity=".5"><path fill="#fff" fill-rule="evenodd" d="M203.169 264.243L391.986 332.336L243.5 413.721L54.9802 345.182L203.169 264.243ZM203.219 264.891L56.415 345.073L243.45 413.073L390.55 332.448L203.219 264.891Z" clip-rule="evenodd"/><path fill="#fff" fill-rule="evenodd" d="M203.169 267.798L391.986 335.89L243.5 417.275L54.9802 348.736L203.169 267.798ZM203.219 268.445L56.415 348.628L243.45 416.627L390.55 336.002L203.219 268.445Z" clip-rule="evenodd"/><path fill="#fff" fill-rule="evenodd" d="M55.2312 344.885C55.3103 344.83 55.4114 344.816 55.5022 344.849L243.576 413.118C243.693 413.161 243.771 413.272 243.771 413.397V421.69C243.771 421.786 243.724 421.877 243.644 421.932C243.565 421.988 243.464 422.001 243.373 421.968L55.3001 353.699C55.183 353.657 55.105 353.545 55.105 353.421V345.128C55.105 345.031 55.1521 344.941 55.2312 344.885ZM55.6973 345.55V353.213L243.178 421.267V413.604L55.6973 345.55Z" clip-rule="evenodd"/></g><g opacity=".5"><path fill="#fff" fill-rule="evenodd" d="M205.423 277.783C205.497 277.742 205.586 277.735 205.666 277.765L346.203 329.003C346.312 329.043 346.388 329.143 346.396 329.26C346.405 329.376 346.345 329.486 346.243 329.542L273.679 369.082C273.605 369.122 273.516 369.129 273.437 369.1L132.456 318.157C132.346 318.118 132.27 318.018 132.261 317.901C132.252 317.785 132.312 317.675 132.415 317.619L205.423 277.783ZM205.589 278.367L133.276 317.824L273.513 368.498L345.384 329.335L205.589 278.367Z" clip-rule="evenodd"/><path fill="#fff" fill-rule="evenodd" d="M205.423 273.933C205.497 273.892 205.586 273.885 205.666 273.914L346.203 325.153C346.312 325.193 346.388 325.293 346.396 325.409C346.405 325.526 346.345 325.636 346.243 325.692L273.679 365.231C273.605 365.272 273.516 365.279 273.437 365.25L132.456 314.307C132.346 314.268 132.27 314.167 132.261 314.051C132.252 313.935 132.312 313.824 132.415 313.769L205.423 273.933ZM205.589 274.517L133.276 313.974L273.513 364.648L345.384 325.485L205.589 274.517Z" clip-rule="evenodd"/></g><path fill="#fff" fill-rule="evenodd" d="M132.535 313.786C132.614 313.731 132.715 313.717 132.806 313.75L273.786 364.693C273.904 364.735 273.982 364.847 273.982 364.972V368.97C273.982 369.067 273.935 369.157 273.856 369.212C273.777 369.268 273.676 369.281 273.585 369.248L132.604 318.158C132.487 318.115 132.409 318.004 132.409 317.879V314.029C132.409 313.932 132.456 313.842 132.535 313.786ZM133.001 314.451V317.671L273.39 368.548V365.179L133.001 314.451Z" clip-rule="evenodd"/><path fill="#fff" fill-rule="evenodd" d="M132.535 281.059C132.614 281.003 132.715 280.99 132.805 281.022L273.786 331.817C273.904 331.859 273.982 331.971 273.982 332.096V368.97C273.982 369.066 273.935 369.157 273.856 369.212C273.777 369.268 273.676 369.281 273.585 369.248L132.604 318.158C132.487 318.115 132.409 318.004 132.409 317.879V281.301C132.409 281.205 132.456 281.114 132.535 281.059ZM133.001 281.723V317.671L273.39 368.548V332.304L133.001 281.723Z" clip-rule="evenodd"/><path fill="#DDCFFF" fill-rule="evenodd" d="M206.607 235.726C206.681 235.685 206.77 235.679 206.85 235.708L350.645 288.131C350.755 288.172 350.831 288.273 350.839 288.39C350.847 288.507 350.785 288.617 350.681 288.672L268.195 332.062C268.121 332.101 268.034 332.107 267.956 332.078L126.234 280.247C126.125 280.207 126.05 280.107 126.041 279.991C126.032 279.875 126.092 279.765 126.194 279.709L206.607 235.726ZM206.773 236.31L127.052 279.915L268.036 331.477L349.814 288.459L206.773 236.31Z" clip-rule="evenodd"/><path fill="#fff" fill-rule="evenodd" d="M126.167 279.726C126.246 279.67 126.347 279.657 126.438 279.69L268.159 331.521C268.276 331.564 268.354 331.675 268.354 331.8V334.761C268.354 334.858 268.307 334.949 268.227 335.004C268.148 335.059 268.047 335.073 267.956 335.039L126.234 283.208C126.118 283.166 126.04 283.054 126.04 282.93V279.968C126.04 279.872 126.087 279.781 126.167 279.726ZM126.632 280.392V282.723L267.761 334.338V332.007L126.632 280.392Z" clip-rule="evenodd"/><path fill="#fff" fill-rule="evenodd" d="M141.15 320.73C141.225 320.688 141.314 320.681 141.395 320.71L230.248 352.846C230.357 352.885 230.433 352.985 230.443 353.101C230.452 353.216 230.393 353.327 230.291 353.383L203.043 368.488C202.968 368.53 202.879 368.537 202.798 368.508L113.945 336.372C113.835 336.333 113.759 336.233 113.75 336.117C113.741 336.002 113.8 335.891 113.902 335.835L141.15 320.73ZM141.32 321.313L114.759 336.037L202.873 367.905L229.434 353.181L141.32 321.313Z" clip-rule="evenodd"/><path fill="#fff" fill-rule="evenodd" d="M173.37 233.848C173.452 233.769 173.573 233.743 173.68 233.783L310.662 284.577C310.754 284.612 310.823 284.689 310.847 284.785C310.87 284.88 310.845 284.981 310.779 285.054L268.277 332.146C268.196 332.236 268.069 332.267 267.956 332.226L126.234 280.246C126.139 280.211 126.068 280.13 126.047 280.03C126.025 279.93 126.057 279.827 126.13 279.756L173.37 233.848ZM173.649 234.403L126.88 279.852L267.972 331.601L310.047 284.981L173.649 234.403Z" clip-rule="evenodd"/><path fill="#fff" fill-rule="evenodd" d="M173.435 234C173.465 233.856 173.595 233.756 173.742 233.765L206.766 235.69C206.794 235.692 206.823 235.698 206.85 235.707L350.644 288.131C350.784 288.182 350.865 288.329 350.832 288.474C350.799 288.62 350.664 288.718 350.516 288.704L310.532 285.002C310.506 285 310.48 284.994 310.456 284.985L173.622 234.338C173.484 234.287 173.404 234.143 173.435 234ZM175.689 234.472L310.625 284.416L348.29 287.903L206.688 236.279L175.689 234.472Z" clip-rule="evenodd"/><path fill="#fff" fill-rule="evenodd" d="M136.366 286.552C136.447 286.485 136.557 286.466 136.655 286.502L222.547 317.749C222.647 317.785 222.72 317.872 222.738 317.977C222.756 318.082 222.716 318.189 222.634 318.256L200.568 336.323C200.487 336.39 200.377 336.408 200.278 336.372L114.831 304.829C114.731 304.792 114.659 304.705 114.641 304.6C114.623 304.496 114.663 304.39 114.745 304.322L136.366 286.552ZM136.612 287.116L115.52 304.452L200.324 335.757L221.856 318.128L136.612 287.116Z" clip-rule="evenodd"/><path fill="#fff" fill-rule="evenodd" d="M141.148 316.881C141.223 316.838 141.313 316.831 141.395 316.86L230.248 348.995C230.357 349.035 230.433 349.135 230.443 349.25C230.452 349.366 230.393 349.477 230.291 349.533L203.043 364.638C202.968 364.679 202.879 364.687 202.799 364.658L113.946 332.819C113.836 332.779 113.76 332.68 113.75 332.565C113.74 332.45 113.799 332.339 113.9 332.282L141.148 316.881ZM141.321 317.463L114.754 332.479L202.873 364.055L229.434 349.331L141.321 317.463Z" clip-rule="evenodd"/><path fill="#fff" fill-rule="evenodd" d="M230.148 349.167C230.239 349.22 230.294 349.317 230.294 349.422V353.177C230.294 353.284 230.236 353.384 230.142 353.436L203.042 368.488C202.95 368.539 202.838 368.538 202.748 368.485C202.657 368.431 202.602 368.334 202.602 368.229V364.527C202.602 364.42 202.66 364.321 202.754 364.268L229.854 349.163C229.946 349.112 230.058 349.113 230.148 349.167ZM203.194 364.701V367.726L229.702 353.003V349.926L203.194 364.701Z" clip-rule="evenodd"/><path fill="#fff" fill-rule="evenodd" d="M113.875 332.446C113.954 332.39 114.055 332.376 114.145 332.409L202.999 364.248C203.117 364.29 203.195 364.402 203.195 364.527V368.229C203.195 368.326 203.148 368.416 203.069 368.472C202.99 368.527 202.889 368.541 202.798 368.508L113.945 336.372C113.827 336.33 113.749 336.219 113.749 336.094V332.688C113.749 332.591 113.796 332.501 113.875 332.446ZM114.342 333.109V335.886L202.603 367.807V364.735L114.342 333.109Z" clip-rule="evenodd"/><path fill="#fff" fill-rule="evenodd" d="M122.469 307.267C122.551 307.212 122.656 307.202 122.747 307.24L124.524 307.98C124.634 308.026 124.706 308.134 124.706 308.254V331.416C124.706 331.524 124.647 331.623 124.553 331.675L122.776 332.652C122.684 332.702 122.572 332.7 122.482 332.647C122.392 332.594 122.337 332.497 122.337 332.392V307.513C122.337 307.414 122.386 307.322 122.469 307.267ZM122.929 307.957V331.892L124.114 331.241V308.451L122.929 307.957Z" clip-rule="evenodd"/><path fill="#fff" fill-rule="evenodd" d="M119.945 306.383C120.023 306.327 120.124 306.313 120.214 306.345L122.732 307.234C122.85 307.276 122.929 307.388 122.929 307.513V332.392C122.929 332.485 122.885 332.573 122.811 332.629C122.736 332.685 122.639 332.703 122.55 332.676L120.032 331.936C119.906 331.899 119.82 331.783 119.82 331.652V306.625C119.82 306.528 119.866 306.438 119.945 306.383ZM120.412 307.043V331.43L122.337 331.996V307.723L120.412 307.043Z" clip-rule="evenodd"/><path fill="#fff" fill-rule="evenodd" d="M204.213 332.865C204.315 332.914 204.38 333.018 204.38 333.132V361.121C204.38 361.22 204.331 361.312 204.248 361.367L202.916 362.256C202.825 362.316 202.709 362.322 202.612 362.271C202.516 362.22 202.456 362.12 202.455 362.011L202.307 334.318C202.307 334.228 202.348 334.142 202.418 334.086L203.899 332.901C203.988 332.83 204.11 332.816 204.213 332.865ZM202.9 334.459L203.045 361.458L203.788 360.962V333.748L202.9 334.459Z" clip-rule="evenodd"/><path fill="#fff" fill-rule="evenodd" d="M202.731 334.049C202.834 334.098 202.899 334.202 202.9 334.315L203.048 362.008C203.048 362.102 203.004 362.192 202.927 362.248C202.851 362.304 202.753 362.32 202.663 362.292L199.849 361.403C199.726 361.364 199.642 361.25 199.642 361.121V336.094C199.642 335.93 199.774 335.798 199.938 335.798H200.278L202.419 334.085C202.507 334.014 202.629 334 202.731 334.049ZM202.311 334.93L200.567 336.325C200.515 336.367 200.45 336.39 200.382 336.39H200.234V360.904L202.453 361.605L202.311 334.93Z" clip-rule="evenodd"/><path fill="#fff" fill-rule="evenodd" d="M216.781 315.873C216.861 315.807 216.969 315.788 217.067 315.822L222.546 317.748C222.647 317.783 222.721 317.87 222.74 317.976C222.758 318.081 222.718 318.188 222.635 318.256L200.57 336.323C200.487 336.391 200.375 336.409 200.275 336.37L194.944 334.297C194.846 334.259 194.775 334.171 194.759 334.067C194.742 333.963 194.782 333.858 194.864 333.791L216.781 315.873ZM217.027 316.436L195.632 333.929L200.329 335.755L221.852 318.132L217.027 316.436Z" clip-rule="evenodd"/><path fill="#fff" fill-rule="evenodd" d="M211.3 313.948C211.38 313.882 211.489 313.863 211.587 313.897L217.066 315.822C217.167 315.858 217.241 315.945 217.26 316.051C217.278 316.156 217.238 316.263 217.155 316.331L195.238 334.25C195.158 334.316 195.048 334.334 194.95 334.299L189.619 332.374C189.519 332.338 189.446 332.251 189.428 332.146C189.41 332.041 189.449 331.934 189.531 331.867L211.3 313.948ZM211.548 314.511L190.309 331.993L194.993 333.685L216.372 316.206L211.548 314.511Z" clip-rule="evenodd"/><path fill="#fff" fill-rule="evenodd" d="M205.97 312.022C206.049 311.957 206.158 311.938 206.255 311.972L211.734 313.897C211.836 313.933 211.91 314.02 211.928 314.126C211.947 314.231 211.907 314.338 211.824 314.406L189.907 332.325C189.827 332.39 189.718 332.409 189.621 332.375L184.142 330.45C184.041 330.414 183.967 330.327 183.948 330.222C183.93 330.116 183.969 330.009 184.052 329.941L205.97 312.022ZM206.216 312.586L184.836 330.066L189.66 331.761L211.04 314.281L206.216 312.586Z" clip-rule="evenodd"/><path fill="#fff" fill-rule="evenodd" d="M200.488 310.098C200.568 310.032 200.676 310.013 200.774 310.047L206.253 311.972C206.355 312.008 206.429 312.095 206.447 312.2C206.466 312.306 206.426 312.413 206.343 312.481L184.426 330.4C184.342 330.468 184.228 330.485 184.128 330.445L178.945 328.372C178.848 328.333 178.778 328.246 178.762 328.143C178.746 328.039 178.786 327.935 178.867 327.868L200.488 310.098ZM200.735 310.661L179.63 328.008L184.186 329.831L205.559 312.356L200.735 310.661Z" clip-rule="evenodd"/><path fill="#fff" fill-rule="evenodd" d="M195.187 308.024C195.267 307.958 195.376 307.939 195.474 307.974L200.924 309.899C201.024 309.934 201.098 310.022 201.117 310.127C201.135 310.232 201.095 310.339 201.013 310.407L179.214 328.326C179.134 328.392 179.025 328.411 178.927 328.376L173.478 326.451C173.377 326.415 173.303 326.328 173.285 326.223C173.266 326.118 173.306 326.011 173.388 325.943L195.187 308.024ZM195.434 308.588L174.17 326.067L178.967 327.762L200.231 310.283L195.434 308.588Z" clip-rule="evenodd"/><path fill="#fff" fill-rule="evenodd" d="M189.677 305.953C189.759 305.884 189.872 305.865 189.972 305.903L195.452 307.976C195.551 308.014 195.622 308.101 195.639 308.205C195.656 308.31 195.617 308.415 195.535 308.482L173.885 326.253C173.804 326.32 173.693 326.338 173.594 326.301L168.439 324.376C168.34 324.339 168.269 324.253 168.251 324.149C168.233 324.045 168.272 323.94 168.352 323.872L189.677 305.953ZM189.925 306.518L169.122 323.999L173.641 325.687L194.763 308.349L189.925 306.518Z" clip-rule="evenodd"/><path fill="#fff" fill-rule="evenodd" d="M184.2 304.025C184.28 303.96 184.388 303.941 184.486 303.975L189.965 305.901C190.065 305.936 190.139 306.023 190.158 306.127C190.177 306.232 190.138 306.339 190.056 306.407L168.583 324.326C168.503 324.394 168.392 324.413 168.294 324.378L162.518 322.304C162.418 322.268 162.344 322.181 162.326 322.076C162.308 321.971 162.348 321.864 162.431 321.796L184.2 304.025ZM184.446 304.589L163.211 321.924L168.334 323.763L189.277 306.287L184.446 304.589Z" clip-rule="evenodd"/><path fill="#fff" fill-rule="evenodd" d="M178.721 302.101C178.801 302.035 178.909 302.016 179.007 302.05L184.486 303.975C184.587 304.011 184.661 304.098 184.68 304.204C184.698 304.309 184.658 304.416 184.575 304.484L162.806 322.255C162.723 322.323 162.609 322.34 162.509 322.3L157.326 320.227C157.228 320.188 157.159 320.101 157.143 319.997C157.127 319.894 157.167 319.79 157.248 319.723L178.721 302.101ZM178.968 302.664L158.011 319.863L162.567 321.686L183.792 304.359L178.968 302.664Z" clip-rule="evenodd"/><path fill="#fff" fill-rule="evenodd" d="M173.389 300.176C173.469 300.11 173.577 300.091 173.675 300.125L179.154 302.05C179.256 302.086 179.33 302.173 179.348 302.279C179.366 302.385 179.326 302.492 179.243 302.56L157.473 320.182C157.395 320.246 157.289 320.265 157.193 320.233L151.862 318.456C151.76 318.422 151.684 318.335 151.665 318.229C151.645 318.123 151.685 318.015 151.768 317.946L173.389 300.176ZM173.636 300.739L152.558 318.064L157.227 319.62L178.458 302.433L173.636 300.739Z" clip-rule="evenodd"/><path fill="#fff" fill-rule="evenodd" d="M167.909 298.25C167.989 298.185 168.098 298.166 168.195 298.2L173.674 300.125C173.776 300.161 173.85 300.248 173.868 300.353C173.887 300.459 173.846 300.566 173.763 300.634L152.142 318.257C152.062 318.322 151.953 318.341 151.855 318.306L146.523 316.38C146.423 316.344 146.35 316.257 146.332 316.152C146.314 316.047 146.354 315.941 146.436 315.873L167.909 298.25ZM168.156 298.814L147.215 316L151.898 317.692L172.98 300.509L168.156 298.814Z" clip-rule="evenodd"/><path fill="#fff" fill-rule="evenodd" d="M162.608 296.177C162.688 296.111 162.797 296.092 162.895 296.127L168.345 298.052C168.445 298.087 168.519 298.174 168.538 298.28C168.556 298.385 168.516 298.492 168.434 298.56L146.813 316.33C146.733 316.396 146.624 316.415 146.527 316.381L141.047 314.456C140.946 314.42 140.872 314.333 140.854 314.228C140.835 314.123 140.875 314.015 140.958 313.948L162.608 296.177ZM162.855 296.741L141.74 314.072L146.566 315.767L167.652 298.435L162.855 296.741Z" clip-rule="evenodd"/><path fill="#fff" fill-rule="evenodd" d="M157.096 294.106C157.178 294.037 157.291 294.018 157.391 294.056L162.871 296.129C162.97 296.166 163.041 296.254 163.058 296.358C163.075 296.462 163.035 296.568 162.954 296.635L141.304 314.406C141.223 314.473 141.112 314.491 141.013 314.454L135.858 312.529C135.759 312.492 135.688 312.406 135.67 312.302C135.652 312.198 135.691 312.093 135.771 312.025L157.096 294.106ZM157.344 294.671L136.541 312.152L141.06 313.84L162.182 296.502L157.344 294.671Z" clip-rule="evenodd"/><path fill="#fff" fill-rule="evenodd" d="M151.471 292.178C151.551 292.113 151.66 292.094 151.757 292.128L157.237 294.053C157.337 294.088 157.411 294.174 157.43 294.279C157.449 294.383 157.411 294.49 157.33 294.559L136.153 312.477C136.071 312.547 135.956 312.566 135.855 312.528L130.08 310.306C129.982 310.268 129.911 310.181 129.894 310.077C129.877 309.973 129.917 309.868 129.998 309.801L151.471 292.178ZM151.718 292.742L130.767 309.936L135.904 311.912L156.552 294.44L151.718 292.742Z" clip-rule="evenodd"/><path fill="#fff" fill-rule="evenodd" d="M145.993 290.253C146.073 290.188 146.181 290.168 146.279 290.203L151.758 292.128C151.859 292.163 151.933 292.251 151.952 292.356C151.97 292.462 151.93 292.569 151.847 292.637L130.226 310.26C130.145 310.325 130.036 310.344 129.938 310.309L124.607 308.383C124.507 308.347 124.434 308.26 124.416 308.155C124.398 308.05 124.438 307.943 124.52 307.876L145.993 290.253ZM146.24 290.817L125.298 308.003L129.982 309.694L151.063 292.512L146.24 290.817Z" clip-rule="evenodd"/><path fill="#fff" fill-rule="evenodd" d="M140.691 288.181C140.771 288.115 140.88 288.096 140.977 288.13L146.427 290.055C146.528 290.091 146.602 290.178 146.62 290.283C146.639 290.389 146.599 290.496 146.516 290.563L124.895 308.334C124.815 308.4 124.707 308.419 124.609 308.385L119.13 306.46C119.029 306.424 118.955 306.337 118.936 306.232C118.918 306.126 118.957 306.019 119.04 305.951L140.691 288.181ZM140.938 288.744L119.823 306.075L124.648 307.771L145.735 290.439L140.938 288.744Z" clip-rule="evenodd"/><path fill="#fff" fill-rule="evenodd" d="M230.362 378.539C230.431 378.5 230.514 378.493 230.588 378.52L259.543 389.037C259.643 389.073 259.713 389.166 259.722 389.273C259.73 389.379 259.675 389.481 259.581 389.533L245.65 397.181C245.581 397.219 245.5 397.225 245.426 397.199L216.472 386.819C216.371 386.783 216.301 386.691 216.292 386.584C216.283 386.478 216.337 386.376 216.431 386.323L230.362 378.539ZM230.519 379.076L217.222 386.507L245.495 396.643L258.789 389.344L230.519 379.076Z" clip-rule="evenodd"/><path fill="#fff" fill-rule="evenodd" d="M216.407 386.339C216.48 386.287 216.573 386.275 216.656 386.305L245.611 396.685C245.719 396.724 245.792 396.826 245.792 396.942V407.868C245.792 407.957 245.748 408.04 245.676 408.091C245.603 408.142 245.51 408.155 245.426 408.125L216.472 397.745C216.363 397.706 216.291 397.603 216.291 397.488V386.562C216.291 386.473 216.334 386.39 216.407 386.339ZM216.837 386.95V397.296L245.245 407.48V397.134L216.837 386.95Z" clip-rule="evenodd"/><path fill="#fff" fill-rule="evenodd" d="M233.004 371.768C233.056 371.739 233.119 371.734 233.175 371.755L255.061 379.704C255.137 379.731 255.19 379.801 255.196 379.882C255.202 379.963 255.161 380.04 255.09 380.079L244.56 385.86C244.508 385.888 244.446 385.893 244.391 385.873L222.505 378.027C222.429 378 222.376 377.931 222.369 377.85C222.362 377.769 222.403 377.692 222.474 377.653L233.004 371.768ZM233.123 372.175L223.072 377.792L244.443 385.453L254.491 379.936L233.123 372.175Z" clip-rule="evenodd"/><path fill="#fff" fill-rule="evenodd" d="M222.456 377.664C222.511 377.625 222.581 377.616 222.645 377.639L244.53 385.484C244.612 385.514 244.667 385.592 244.667 385.679V393.937C244.667 394.005 244.634 394.068 244.579 394.106C244.524 394.145 244.454 394.154 244.391 394.132L222.505 386.286C222.423 386.257 222.368 386.179 222.368 386.092V377.833C222.368 377.766 222.401 377.703 222.456 377.664ZM222.781 378.126V385.946L244.254 393.644V385.824L222.781 378.126Z" clip-rule="evenodd"/><path fill="#fff" fill-rule="evenodd" d="M42.7083 301.333C42.7743 301.296 42.8531 301.289 42.9242 301.315L70.5197 311.338C70.6158 311.373 70.6825 311.461 70.6904 311.563C70.6982 311.665 70.6457 311.762 70.5561 311.811L57.279 319.1C57.2137 319.136 57.1361 319.142 57.0659 319.117L29.4703 309.225C29.3743 309.19 29.3072 309.103 29.2987 309.001C29.2903 308.899 29.3421 308.802 29.4312 308.752L42.7083 301.333ZM42.8583 301.845L30.1848 308.928L57.1312 318.588L69.8016 311.631L42.8583 301.845Z" clip-rule="evenodd"/><path fill="#fff" fill-rule="evenodd" d="M70.5631 311.359C70.6423 311.405 70.6908 311.491 70.6908 311.583V321.996C70.6908 322.091 70.6391 322.178 70.5558 322.224L57.2787 329.514C57.198 329.558 57.1 329.556 57.0208 329.509C56.9416 329.463 56.8931 329.377 56.8931 329.285V318.872C56.8931 318.777 56.9448 318.69 57.0281 318.644L70.3052 311.354C70.3859 311.31 70.4839 311.312 70.5631 311.359ZM57.4137 319.026V328.845L70.1702 321.842V312.023L57.4137 319.026Z" clip-rule="evenodd"/><path fill="#fff" fill-rule="evenodd" d="M29.4083 308.766C29.4776 308.718 29.5663 308.706 29.646 308.734L57.2416 318.627C57.345 318.664 57.4141 318.762 57.4141 318.872V329.285C57.4141 329.37 57.3728 329.45 57.3036 329.498C57.2343 329.547 57.1456 329.559 57.0659 329.531L29.4703 319.638C29.3669 319.601 29.2979 319.503 29.2979 319.393V308.979C29.2979 308.895 29.3391 308.815 29.4083 308.766ZM29.8185 309.349V319.21L56.8934 328.916V319.055L29.8185 309.349Z" clip-rule="evenodd"/><path fill="#fff" fill-rule="evenodd" d="M45.2259 294.879C45.2758 294.852 45.3353 294.847 45.3891 294.866L66.2476 302.442C66.3203 302.469 66.3707 302.535 66.3767 302.612C66.3826 302.689 66.3429 302.763 66.2752 302.8L56.2394 308.31C56.19 308.337 56.1314 308.341 56.0783 308.322L35.2197 300.845C35.1471 300.819 35.0964 300.753 35.09 300.676C35.0837 300.599 35.1228 300.525 35.1901 300.488L45.2259 294.879ZM45.3393 295.267L35.7598 300.62L56.1277 307.922L65.7049 302.664L45.3393 295.267Z" clip-rule="evenodd"/><path fill="#fff" fill-rule="evenodd" d="M66.281 302.458C66.3408 302.493 66.3775 302.558 66.3775 302.627V310.498C66.3775 310.57 66.3384 310.636 66.2755 310.671L56.2397 316.181C56.1788 316.214 56.1047 316.213 56.0448 316.178C55.985 316.142 55.9482 316.078 55.9482 316.008V308.137C55.9482 308.065 55.9874 307.999 56.0503 307.965L66.0861 302.455C66.147 302.421 66.2211 302.422 66.281 302.458ZM56.3418 308.253V315.676L65.984 310.382V302.96L56.3418 308.253Z" clip-rule="evenodd"/><path fill="#fff" fill-rule="evenodd" d="M35.1731 300.499C35.2255 300.462 35.2925 300.453 35.3528 300.474L56.2114 307.952C56.2896 307.98 56.3417 308.054 56.3417 308.137V316.008C56.3417 316.072 56.3106 316.132 56.2582 316.169C56.2059 316.206 56.1388 316.215 56.0786 316.193L35.22 308.716C35.1418 308.688 35.0896 308.614 35.0896 308.531V300.659C35.0896 300.595 35.1208 300.535 35.1731 300.499ZM35.4832 300.939V308.392L55.9482 315.729V308.276L35.4832 300.939Z" clip-rule="evenodd"/><path fill="#fff" fill-rule="evenodd" d="M92.4596 334.163C92.5043 334.138 92.5578 334.133 92.606 334.151L111.325 340.95C111.39 340.973 111.436 341.033 111.441 341.102C111.446 341.171 111.411 341.237 111.35 341.27L102.343 346.215C102.299 346.239 102.246 346.244 102.199 346.227L83.4798 339.516C83.4146 339.493 83.3691 339.433 83.3634 339.364C83.3577 339.295 83.3928 339.229 83.4532 339.196L92.4596 334.163ZM92.5614 334.51L83.9644 339.314L102.243 345.867L110.838 341.148L92.5614 334.51Z" clip-rule="evenodd"/><path fill="#fff" fill-rule="evenodd" d="M111.355 340.964C111.408 340.996 111.441 341.054 111.441 341.116V348.18C111.441 348.244 111.406 348.304 111.35 348.335L102.343 353.279C102.289 353.309 102.222 353.308 102.168 353.276C102.115 353.245 102.082 353.187 102.082 353.124V346.061C102.082 345.996 102.117 345.937 102.173 345.906L111.18 340.961C111.234 340.931 111.301 340.932 111.355 340.964ZM102.435 346.165V352.826L111.088 348.075V341.414L102.435 346.165Z" clip-rule="evenodd"/><path fill="#fff" fill-rule="evenodd" d="M83.438 339.206C83.485 339.172 83.5451 339.164 83.5992 339.184L102.318 345.894C102.388 345.919 102.435 345.986 102.435 346.061V353.124C102.435 353.182 102.407 353.236 102.36 353.269C102.313 353.302 102.253 353.31 102.199 353.291L83.48 346.58C83.4099 346.555 83.363 346.488 83.363 346.414V339.35C83.363 339.292 83.391 339.239 83.438 339.206ZM83.7162 339.601V346.289L102.082 352.873V346.185L83.7162 339.601Z" clip-rule="evenodd"/><path fill="#fff" fill-rule="evenodd" d="M55.2309 344.885C55.31 344.83 55.4112 344.816 55.502 344.849L243.575 413.118C243.692 413.161 243.77 413.272 243.77 413.397V416.951C243.77 417.047 243.723 417.138 243.644 417.193C243.565 417.249 243.464 417.262 243.373 417.229L55.2999 348.96C55.1827 348.918 55.1047 348.806 55.1047 348.682V345.127C55.1047 345.031 55.1518 344.94 55.2309 344.885ZM55.6971 345.55V348.474L243.178 416.528V413.604L55.6971 345.55Z" clip-rule="evenodd"/><g opacity=".5"><path fill="#fff" fill-rule="evenodd" d="M152.258 251.578C152.353 251.634 152.411 251.736 152.411 251.846V283.518C152.411 283.632 152.348 283.736 152.248 283.791L139.362 290.777C139.266 290.829 139.149 290.827 139.055 290.771C138.961 290.715 138.904 290.614 138.904 290.504V258.987C138.904 258.875 138.965 258.771 139.064 258.716L151.95 251.574C152.046 251.521 152.163 251.522 152.258 251.578ZM139.525 259.17V289.983L151.79 283.333V252.373L139.525 259.17Z" clip-rule="evenodd"/><path fill="#fff" fill-rule="evenodd" d="M124.287 253.455C124.369 253.397 124.475 253.383 124.57 253.417L139.319 258.696C139.443 258.74 139.525 258.857 139.525 258.988V290.349C139.525 290.451 139.475 290.546 139.392 290.604C139.309 290.662 139.202 290.676 139.107 290.641L124.358 285.207C124.236 285.162 124.155 285.046 124.155 284.915V253.709C124.155 253.608 124.204 253.513 124.287 253.455ZM124.776 254.15V284.699L138.904 289.904V259.207L124.776 254.15Z" clip-rule="evenodd"/><path fill="#fff" fill-rule="evenodd" d="M134.721 210.742C134.799 210.698 134.892 210.691 134.976 210.722L184.348 228.731C184.462 228.773 184.542 228.879 184.551 229.001C184.56 229.122 184.496 229.238 184.389 229.296L137.036 254.913C136.958 254.956 136.865 254.962 136.782 254.932L87.8766 237.078C87.7622 237.036 87.6828 236.931 87.6735 236.81C87.6642 236.688 87.7268 236.572 87.8335 236.514L134.721 210.742ZM134.896 211.354L88.7318 236.729L136.864 254.301L183.486 229.078L134.896 211.354Z" clip-rule="evenodd"/><path fill="#fff" fill-rule="evenodd" d="M184.244 228.756C184.338 228.812 184.396 228.914 184.396 229.023V246.412C184.396 246.526 184.333 246.63 184.233 246.685L137.036 272.302C136.94 272.354 136.823 272.352 136.729 272.296C136.635 272.24 136.577 272.138 136.577 272.029V254.64C136.577 254.526 136.639 254.422 136.74 254.367L183.937 228.75C184.033 228.698 184.15 228.7 184.244 228.756ZM137.198 254.825V271.507L183.775 246.227V229.545L137.198 254.825Z" clip-rule="evenodd"/><path fill="#fff" fill-rule="evenodd" d="M87.8049 236.531C87.888 236.473 87.9941 236.459 88.0894 236.494L136.995 254.348C137.117 254.393 137.199 254.51 137.199 254.64V272.029C137.199 272.13 137.149 272.225 137.066 272.283C136.983 272.341 136.877 272.355 136.782 272.32L87.8764 254.466C87.7539 254.421 87.6724 254.305 87.6724 254.174V236.786C87.6724 236.684 87.7218 236.59 87.8049 236.531ZM88.2934 237.23V253.957L136.578 271.585V254.857L88.2934 237.23Z" clip-rule="evenodd"/><path fill="#fff" fill-rule="evenodd" d="M135.218 205.075C135.274 205.044 135.341 205.039 135.401 205.061L170.702 217.938C170.784 217.968 170.841 218.043 170.847 218.13C170.854 218.217 170.808 218.3 170.731 218.342L136.874 236.658C136.818 236.688 136.752 236.693 136.692 236.672L101.724 223.905C101.642 223.876 101.585 223.801 101.579 223.714C101.572 223.627 101.617 223.544 101.693 223.502L135.218 205.075ZM135.344 205.513L102.335 223.656L136.75 236.22L170.086 218.186L135.344 205.513Z" clip-rule="evenodd"/><path fill="#fff" fill-rule="evenodd" d="M170.628 217.955C170.696 217.995 170.737 218.068 170.737 218.146V230.579C170.737 230.661 170.692 230.735 170.621 230.774L136.874 249.091C136.805 249.128 136.722 249.126 136.655 249.086C136.587 249.046 136.546 248.974 136.546 248.896V236.463C136.546 236.381 136.591 236.306 136.662 236.267L170.409 217.951C170.478 217.914 170.561 217.915 170.628 217.955ZM136.99 236.595V248.523L170.293 230.447V218.519L136.99 236.595Z" clip-rule="evenodd"/><path fill="#fff" fill-rule="evenodd" d="M101.673 223.515C101.732 223.473 101.808 223.463 101.876 223.488L136.844 236.254C136.932 236.286 136.99 236.37 136.99 236.463V248.896C136.99 248.968 136.955 249.036 136.895 249.078C136.836 249.119 136.76 249.129 136.692 249.105L101.724 236.338C101.636 236.306 101.578 236.223 101.578 236.13V223.697C101.578 223.624 101.613 223.556 101.673 223.515ZM102.022 224.014V235.975L136.546 248.579V236.618L102.022 224.014Z" clip-rule="evenodd"/><path fill="#fff" fill-rule="evenodd" d="M136.293 203.28C136.329 203.26 136.373 203.256 136.412 203.27L159.402 211.657C159.455 211.676 159.492 211.725 159.496 211.782C159.5 211.839 159.471 211.893 159.421 211.92L137.371 223.848C137.335 223.868 137.292 223.871 137.253 223.857L114.48 215.543C114.427 215.524 114.39 215.475 114.385 215.418C114.381 215.362 114.41 215.308 114.46 215.28L136.293 203.28ZM136.375 203.565L114.878 215.381L137.291 223.563L159.001 211.818L136.375 203.565Z" clip-rule="evenodd"/><path fill="#fff" fill-rule="evenodd" d="M159.355 211.668C159.399 211.694 159.426 211.742 159.426 211.793V219.889C159.426 219.943 159.397 219.991 159.35 220.017L137.372 231.945C137.328 231.969 137.273 231.968 137.23 231.942C137.186 231.916 137.159 231.869 137.159 231.818V223.721C137.159 223.668 137.188 223.619 137.235 223.594L159.212 211.665C159.257 211.641 159.311 211.642 159.355 211.668ZM137.448 223.807V231.575L159.136 219.803V212.036L137.448 223.807Z" clip-rule="evenodd"/><path fill="#fff" fill-rule="evenodd" d="M114.447 215.288C114.486 215.261 114.535 215.255 114.579 215.271L137.352 223.585C137.409 223.606 137.447 223.66 137.447 223.721V231.818C137.447 231.865 137.424 231.909 137.385 231.936C137.347 231.963 137.297 231.97 137.253 231.953L114.48 223.64C114.423 223.619 114.385 223.564 114.385 223.504V215.407C114.385 215.36 114.408 215.315 114.447 215.288ZM114.674 215.614V223.403L137.158 231.611V223.822L114.674 215.614Z" clip-rule="evenodd"/></g><g opacity=".5"><path fill="#fff" fill-opacity=".5" fill-rule="evenodd" d="M126.685 252.79C126.755 252.832 126.799 252.907 126.799 252.989V276.584C126.799 276.669 126.752 276.747 126.678 276.787L117.078 281.992C117.006 282.031 116.919 282.029 116.849 281.987C116.779 281.945 116.736 281.87 116.736 281.788V258.31C116.736 258.226 116.782 258.148 116.856 258.107L126.455 252.787C126.527 252.747 126.614 252.748 126.685 252.79ZM117.199 258.446V281.4L126.336 276.446V253.382L117.199 258.446Z" clip-rule="evenodd"/><path fill="#fff" fill-opacity=".5" fill-rule="evenodd" d="M105.846 254.188C105.907 254.145 105.986 254.134 106.057 254.16L117.045 258.092C117.137 258.125 117.198 258.212 117.198 258.31V281.673C117.198 281.749 117.161 281.82 117.099 281.863C117.037 281.906 116.958 281.916 116.887 281.89L105.899 277.842C105.808 277.809 105.748 277.722 105.748 277.625V254.378C105.748 254.302 105.784 254.232 105.846 254.188ZM106.21 254.706V277.464L116.735 281.341V258.473L106.21 254.706Z" clip-rule="evenodd"/><path fill="#fff" fill-opacity=".5" fill-rule="evenodd" d="M113.615 222.368C113.673 222.336 113.743 222.331 113.805 222.354L150.585 235.77C150.67 235.801 150.729 235.88 150.736 235.97C150.743 236.061 150.696 236.147 150.616 236.191L115.34 255.274C115.281 255.306 115.212 255.311 115.15 255.288L78.7177 241.988C78.6324 241.956 78.5733 241.878 78.5663 241.788C78.5594 241.697 78.6061 241.611 78.6856 241.568L113.615 222.368ZM113.745 222.824L79.3548 241.728L115.211 254.818L149.943 236.028L113.745 222.824Z" clip-rule="evenodd"/><path fill="#fff" fill-opacity=".5" fill-rule="evenodd" d="M150.508 235.789C150.578 235.83 150.621 235.906 150.621 235.987V248.941C150.621 249.026 150.575 249.104 150.5 249.145L115.34 268.228C115.268 268.267 115.181 268.265 115.111 268.224C115.041 268.182 114.998 268.106 114.998 268.025V255.071C114.998 254.986 115.044 254.908 115.119 254.868L150.279 235.784C150.351 235.745 150.438 235.747 150.508 235.789ZM115.461 255.209V267.636L150.158 248.804V236.376L115.461 255.209Z" clip-rule="evenodd"/><path fill="#fff" fill-opacity=".5" fill-rule="evenodd" d="M78.6644 241.581C78.7263 241.538 78.8054 241.527 78.8763 241.553L115.309 254.854C115.4 254.887 115.461 254.974 115.461 255.071V268.025C115.461 268.101 115.424 268.171 115.362 268.215C115.3 268.258 115.221 268.268 115.15 268.242L78.7177 254.942C78.6264 254.908 78.5657 254.822 78.5657 254.724V241.771C78.5657 241.695 78.6025 241.624 78.6644 241.581ZM79.0283 242.101V254.563L114.998 267.694V255.233L79.0283 242.101Z" clip-rule="evenodd"/><path fill="#fff" fill-opacity=".5" fill-rule="evenodd" d="M113.987 218.147C114.029 218.124 114.079 218.12 114.123 218.137L140.421 227.73C140.482 227.752 140.525 227.808 140.53 227.873C140.534 227.938 140.501 228 140.443 228.03L115.221 241.676C115.179 241.698 115.13 241.702 115.085 241.685L89.0354 232.175C88.9745 232.153 88.9322 232.097 88.9272 232.032C88.9223 231.968 88.9556 231.906 89.0125 231.875L113.987 218.147ZM114.081 218.473L89.491 231.989L115.129 241.349L139.963 227.914L114.081 218.473Z" clip-rule="evenodd"/><path fill="#fff" fill-opacity=".5" fill-rule="evenodd" d="M140.366 227.743C140.416 227.773 140.447 227.827 140.447 227.885V237.147C140.447 237.208 140.414 237.264 140.361 237.293L115.221 250.938C115.169 250.966 115.107 250.964 115.057 250.934C115.007 250.905 114.976 250.851 114.976 250.792V241.53C114.976 241.47 115.01 241.414 115.063 241.385L140.203 227.74C140.254 227.712 140.316 227.713 140.366 227.743ZM115.307 241.629V250.514L140.116 237.049V228.163L115.307 241.629Z" clip-rule="evenodd"/><path fill="#fff" fill-opacity=".5" fill-rule="evenodd" d="M88.9974 231.884C89.0416 231.853 89.0982 231.846 89.1489 231.865L115.199 241.375C115.264 241.399 115.307 241.461 115.307 241.53V250.792C115.307 250.846 115.281 250.897 115.237 250.928C115.192 250.959 115.136 250.966 115.085 250.948L89.0354 241.437C88.9702 241.414 88.9268 241.351 88.9268 241.282V232.02C88.9268 231.966 88.9531 231.915 88.9974 231.884ZM89.2575 232.256V241.166L114.976 250.556V241.646L89.2575 232.256Z" clip-rule="evenodd"/><path fill="#fff" fill-opacity=".5" fill-rule="evenodd" d="M114.787 216.809C114.814 216.794 114.847 216.792 114.876 216.803L132.002 223.05C132.042 223.065 132.07 223.101 132.073 223.143C132.076 223.186 132.054 223.226 132.017 223.246L115.591 232.132C115.563 232.147 115.531 232.149 115.502 232.139L98.5376 225.945C98.4979 225.931 98.4703 225.894 98.4671 225.852C98.4639 225.81 98.4856 225.77 98.5226 225.75L114.787 216.809ZM114.848 217.022L98.8342 225.824L115.531 231.92L131.704 223.17L114.848 217.022Z" clip-rule="evenodd"/><path fill="#fff" fill-opacity=".5" fill-rule="evenodd" d="M131.966 223.059C131.999 223.078 132.019 223.113 132.019 223.151V229.183C132.019 229.223 131.997 229.259 131.963 229.278L115.59 238.164C115.557 238.182 115.516 238.182 115.484 238.162C115.451 238.143 115.431 238.108 115.431 238.07V232.038C115.431 231.998 115.453 231.962 115.487 231.943L131.86 223.057C131.893 223.039 131.934 223.039 131.966 223.059ZM115.647 232.102V237.889L131.803 229.119V223.332L115.647 232.102Z" clip-rule="evenodd"/><path fill="#fff" fill-opacity=".5" fill-rule="evenodd" d="M98.5125 225.756C98.5413 225.736 98.5782 225.731 98.6112 225.743L115.576 231.936C115.618 231.952 115.647 231.992 115.647 232.038V238.069C115.647 238.105 115.63 238.138 115.601 238.158C115.572 238.178 115.535 238.183 115.502 238.171L98.5373 231.977C98.4948 231.962 98.4666 231.921 98.4666 231.876V225.844C98.4666 225.809 98.4837 225.776 98.5125 225.756ZM98.682 225.998V231.801L115.431 237.915V232.113L98.682 225.998Z" clip-rule="evenodd"/></g></g><g filter="url(#filter0_bf_83_482)"><path fill="url(#paint0_linear_83_482)" fill-rule="evenodd" d="M222.671 240.99L219.938 239.478L219.94 241.957L219.938 241.956L219.941 242.628L220.099 411.769L220.635 412.582L220.662 419.051L232.964 423.345V419.327L232.965 419.328V244.93L222.671 240.99Z" clip-rule="evenodd"/></g><path stroke="#fff" stroke-linejoin="round" stroke-width=".501" d="M115.986 149.437L153.635 160.219L171.748 152.274L134.1 141.35L115.986 149.437Z"/><path stroke="#fff" stroke-linejoin="round" stroke-width=".501" d="M153.635 171.568V160.219L171.749 152.274V163.624L153.635 171.568Z"/><path stroke="#fff" stroke-linejoin="round" stroke-width=".501" d="M153.635 171.569V160.219L115.986 149.437V160.787L153.635 171.569Z"/><path stroke="#fff" stroke-linejoin="round" stroke-width=".501" d="M103.708 132.969L158.74 148.403L181.864 137.572L127.318 121.744L103.708 132.969Z"/><path stroke="#fff" stroke-linejoin="round" stroke-width=".501" d="M158.741 165.24L159.033 148.637L181.866 137.572V154.015L158.741 165.24Z"/><path stroke="#fff" stroke-linejoin="round" stroke-width=".501" d="M158.548 165.035V148.591L104.002 132.969V149.413L158.548 165.035Z"/><path stroke="#fff" stroke-linejoin="round" stroke-width=".501" d="M116.294 122.816L153.942 133.598L172.056 125.653L134.408 114.729L116.294 122.816Z"/><path stroke="#fff" stroke-linejoin="round" stroke-width=".501" d="M153.943 144.948V133.598L172.057 125.653V137.003L153.943 144.948Z"/><path stroke="#fff" stroke-linejoin="round" stroke-width=".501" d="M153.942 144.948V133.598L116.294 122.816V134.166L153.942 144.948Z"/><path fill="#9FF9FF" stroke="#9FF9FF" stroke-linejoin="round" stroke-width=".743" d="M265.023 188.547L332.597 207.9L365.109 193.64L297.535 174.033L265.023 188.547Z"/><path fill="#6DF6FF" stroke="#6DF6FF" stroke-linejoin="round" stroke-width=".743" d="M332.598 228.271V207.9L365.11 193.64V214.011L332.598 228.271Z"/><path fill="#B8E7EA" stroke="#B8E7EA" stroke-linejoin="round" stroke-width=".743" d="M332.597 228.272V207.9L265.023 188.548V208.919L332.597 228.272Z"/><path fill="#9FF9FF" stroke="#9FF9FF" stroke-linejoin="round" stroke-width="1.077" d="M242.983 158.991L341.757 186.693L383.263 167.252L285.36 138.844L242.983 158.991Z"/><path fill="#6DF6FF" stroke="#6DF6FF" stroke-linejoin="round" stroke-width="1.077" d="M341.758 216.913L342.283 187.112L383.264 167.251V196.766L341.758 216.913Z"/><path fill="#CCFCFF" stroke="#CCFCFF" stroke-linejoin="round" stroke-width="1.077" d="M341.413 216.544V187.029L243.509 158.99V188.505L341.413 216.544Z"/><path fill="#9FF9FF" stroke="#9FF9FF" stroke-linejoin="round" stroke-width=".743" d="M265.578 140.766L333.152 160.119L365.665 145.859L298.09 126.252L265.578 140.766Z"/><path fill="#6DF6FF" stroke="#6DF6FF" stroke-linejoin="round" stroke-width=".743" d="M333.153 180.491V160.119L365.665 145.859V166.231L333.153 180.491Z"/><path fill="#CCFCFF" stroke="#CCFCFF" stroke-linejoin="round" stroke-width=".743" d="M333.152 180.49V160.119L265.578 140.766V161.138L333.152 180.49Z"/><defs><filter id="filter0_bf_83_482" width="23.047" height="193.887" x="214.928" y="234.468" color-interpolation-filters="sRGB" filterUnits="userSpaceOnUse"><feFlood flood-opacity="0" result="BackgroundImageFix"/><feGaussianBlur in="BackgroundImage" stdDeviation="2.505"/><feComposite in2="SourceAlpha" operator="in" result="effect1_backgroundBlur_83_482"/><feBlend in="SourceGraphic" in2="effect1_backgroundBlur_83_482" mode="normal" result="shape"/><feGaussianBlur result="effect2_foregroundBlur_83_482" stdDeviation="2.505"/></filter><linearGradient id="paint0_linear_83_482" x1="197.743" x2="229.254" y1="331.907" y2="332.482" gradientUnits="userSpaceOnUse"><stop stop-color="#fff" stop-opacity=".44"/><stop offset="1" stop-color="#fff" stop-opacity="0"/></linearGradient></defs></svg>