<svg xmlns="http://www.w3.org/2000/svg" width="813" height="473" fill="none" viewBox="0 0 813 473"><g opacity=".6"><path fill="#AE8025" stroke="#AE8025" stroke-linejoin="round" stroke-width=".89" d="M155.585 156.132V110.762L137.126 120.993V166.14L155.585 156.132Z"/><path fill="#EAB754" stroke="#EAB754" stroke-linejoin="round" stroke-width=".89" d="M115.998 113.431L137.126 120.993V165.918L115.998 158.134V113.431Z"/><path fill="#89FA6E" stroke="#89FA6E" stroke-linejoin="round" stroke-width=".89" d="M133.79 114.765L201.622 78.0691L130.898 52.2705L63.7332 89.1892L133.79 114.765Z"/><path fill="#2C8F14" stroke="#2C8F14" stroke-linejoin="round" stroke-width=".89" d="M133.79 139.675V114.766L201.4 78.0693V102.978L133.79 139.675Z"/><path fill="#6ED356" stroke="#6ED356" stroke-linejoin="round" stroke-width=".89" d="M133.79 139.675V114.766L63.733 89.1895V114.098L133.79 139.675Z"/><path fill="#89FA6E" stroke="#89FA6E" stroke-linejoin="round" stroke-width=".636" d="M133.618 88.7262L181.829 62.2785L131.551 44.0415L83.527 70.4388L133.618 88.7262Z"/><path fill="#52D033" stroke="#52D033" stroke-linejoin="round" stroke-width=".636" d="M133.618 106.536V88.7261L181.96 62.4878V80.298L133.618 106.536Z"/><path fill="#6ED356" stroke="#6ED356" stroke-linejoin="round" stroke-width=".636" d="M133.618 106.536V88.726L83.527 70.4387V88.249L133.618 106.536Z"/><path fill="#94FF7B" stroke="#94FF7B" stroke-linejoin="round" stroke-width=".414" d="M134.386 70.4735L165.972 53.3859L133.039 41.3728L101.764 58.564L134.386 70.4735Z"/><path fill="#2F6721" stroke="#2F6721" stroke-linejoin="round" stroke-width=".414" d="M134.386 82.0722V70.4733L165.868 53.3857V64.9846L134.386 82.0722Z"/><path fill="#6ED356" stroke="#6ED356" stroke-linejoin="round" stroke-width=".414" d="M134.386 82.0721V70.4733L101.764 58.5637V70.1626L134.386 82.0721Z"/><path fill="#DEA63A" stroke="#DEA63A" stroke-linejoin="round" stroke-width="1.242" d="M227.399 161.249V97.895L201.623 112.181V175.225L227.399 161.249Z"/><path fill="#F3C160" stroke="#F3C160" stroke-linejoin="round" stroke-width="1.242" d="M172.119 101.622L201.623 112.181V174.914L172.119 164.045V101.622Z"/><path fill="#72ED55" stroke="#72ED55" stroke-linejoin="round" stroke-width="1.242" d="M196.964 103.485L291.685 52.2426L192.927 16.2175L99.1375 67.7707L196.964 103.485Z"/><path fill="#4AD529" stroke="#4AD529" stroke-linejoin="round" stroke-width="1.242" d="M196.964 138.268V103.485L291.375 52.2426V87.0254L196.964 138.268Z"/><path fill="#77FF57" stroke="#77FF57" stroke-linejoin="round" stroke-width="1.242" d="M196.964 138.268V103.485L99.1376 67.7705V102.553L196.964 138.268Z"/><path fill="#72ED55" stroke="#72ED55" stroke-linejoin="round" stroke-width=".888" d="M196.725 67.1242L264.045 30.1927L193.838 4.72668L126.777 41.5878L196.725 67.1242Z"/><path fill="#52D033" stroke="#52D033" stroke-linejoin="round" stroke-width=".888" d="M196.725 91.9942V67.1241L264.229 30.485V55.3552L196.725 91.9942Z"/><path fill="#77FF57" stroke="#77FF57" stroke-linejoin="round" stroke-width=".888" d="M196.725 91.9942V67.124L126.777 41.5876V66.4578L196.725 91.9942Z"/><path fill="#94FF7B" stroke="#94FF7B" stroke-linejoin="round" stroke-width=".578" d="M197.796 41.6361L241.903 17.775L195.916 1L152.243 25.0057L197.796 41.6361Z"/><path fill="#4AD429" stroke="#4AD429" stroke-linejoin="round" stroke-width=".578" d="M197.796 57.8327V41.6361L241.759 17.775V33.9716L197.796 57.8327Z"/><path fill="#77FF57" stroke="#77FF57" stroke-linejoin="round" stroke-width=".578" d="M197.796 57.8328V41.6362L152.244 25.0057V41.2023L197.796 57.8328Z"/><path fill="#FFC148" stroke="#FFC148" stroke-linejoin="round" stroke-width="1.242" d="M437.649 450.692L437.649 433.301L748.52 263.735L748.52 281.437L437.649 450.692Z"/><path fill="#66D84B" stroke="#66D84A" stroke-width="1.242" d="M437.649 433.301L43.8574 290.132L353.176 121.187L747.589 263.424L437.649 433.301Z"/><path fill="#FFD583" stroke="#FFD583" stroke-linejoin="round" stroke-width="1.242" d="M43.2363 290.132V307.524L437.649 450.692V433.301L43.2363 290.132Z"/><g opacity=".5"><path stroke="#fff" stroke-linejoin="round" stroke-width="1.242" d="M500.693 339.822L652.868 256.902L358.145 149.448L205.039 232.989L500.693 339.822Z"/><path stroke="#fff" stroke-linejoin="round" stroke-width="1.242" d="M500.693 331.747L652.868 248.828L358.145 141.374L205.039 224.914L500.693 331.747Z"/></g><path fill="#D1BFFF" stroke="#D1BFFF" stroke-linejoin="round" stroke-width="1.242" d="M205.349 156.281L501.003 262.803V340.133L205.349 232.989V156.281Z"/><path fill="#B598FF" stroke="#B598FF" stroke-linejoin="round" stroke-width="1.242" d="M501.003 262.492V339.822L652.868 256.902V182.678L501.003 262.492Z"/><path fill="#7252C6" stroke="#7252C6" stroke-linejoin="round" stroke-width="1.242" d="M652.868 257.213V248.828L501.003 331.437V340.133L652.868 257.213Z"/><path fill="#A8F" stroke="#A8F" stroke-linejoin="round" stroke-width="1.242" d="M501.003 340.133V331.748L205.349 224.915V232.989L501.003 340.133Z"/><path stroke="#DDCFFF" stroke-linejoin="round" stroke-width="1.242" d="M489.202 262.182L662.185 171.187L360.63 61.2488L191.995 153.485L489.202 262.182Z"/><path fill="#8B64EE" stroke="#8B64EE" stroke-linejoin="round" stroke-width="1.242" d="M489.202 268.393V262.182L662.184 171.188V177.399L489.202 268.393Z"/><path fill="#B496FF" stroke="#B496FF" stroke-linejoin="round" stroke-width="1.242" d="M489.202 268.393V262.182L191.995 153.485V159.697L489.202 268.393Z"/><path stroke="#fff" stroke-linejoin="round" stroke-width="1.242" d="M352.555 338.58L409.698 306.903L223.362 239.511L166.219 271.188L352.555 338.58Z"/><path fill="#7149D7" stroke="#8B64EE" stroke-linejoin="round" stroke-width="1.242" d="M578.333 163.734L489.202 262.182L662.184 171.187L578.333 163.734Z"/><path fill="#9877EC" stroke="#9877EC" stroke-linejoin="round" stroke-width="1.242" d="M291.064 57.2117L578.333 163.734L489.202 262.493L191.995 153.486L291.064 57.2117Z"/><path fill="#A886FF" stroke="#A886FF" stroke-linejoin="round" stroke-width="1.242" d="M662.184 171.188L578.333 163.424L291.375 57.2117L360.63 61.249L662.184 171.188Z"/><path fill="#8C5FFF" stroke="#8C5FFF" stroke-linejoin="round" stroke-width="1.242" d="M213.424 167.771L393.549 233.3L347.276 271.188L168.082 205.039L213.424 167.771Z"/><path fill="#F0EAFF" stroke="#F0EAFF" stroke-linejoin="round" stroke-width="1.242" d="M352.555 330.505L409.698 298.828L223.362 231.436L166.219 263.735L352.555 330.505Z"/><path fill="#A8F" stroke="#A8F" stroke-linejoin="round" stroke-width="1.242" d="M409.388 299.139V307.013L352.555 338.58V330.816L409.388 299.139Z"/><path fill="#D2C0FF" stroke="#D2C0FF" stroke-linejoin="round" stroke-width="1.242" d="M166.219 263.735L351.934 330.505V338.269L166.219 270.878V263.735Z"/><path fill="#8962EA" stroke="#8962EA" stroke-linejoin="round" stroke-width="1.242" d="M184.231 263.424V211.25L187.958 212.803V261.377L184.231 263.424Z"/><path fill="#B091FF" stroke="#B091FF" stroke-linejoin="round" stroke-width="1.242" d="M178.952 261.871L184.231 263.424V211.25L178.952 209.386V261.871Z"/><path fill="#8962EA" stroke="#8962EA" stroke-linejoin="round" stroke-width="1.242" d="M355.04 323.673V264.977L351.934 267.461L352.245 325.536L355.04 323.673Z"/><path fill="#B091FF" stroke="#B091FF" stroke-linejoin="round" stroke-width="1.242" d="M346.344 323.673L352.245 325.536L351.934 267.461L347.276 271.188H346.344V323.673Z"/><path fill="#fff" stroke="#fff" stroke-linejoin="round" stroke-width="1.242" d="M382.058 229.262L393.549 233.3L347.276 271.188L336.095 266.84L382.058 229.262Z"/><path stroke="#8C5FFF" stroke-linejoin="round" stroke-width="1.242" d="M370.568 225.225L382.058 229.262L336.095 266.84L324.915 262.803L370.568 225.225Z"/><path fill="#fff" stroke="#fff" stroke-linejoin="round" stroke-width="1.242" d="M359.387 221.188L370.878 225.225L324.915 262.803L313.424 258.766L359.387 221.188Z"/><path stroke="#8C5FFF" stroke-linejoin="round" stroke-width="1.242" d="M347.897 217.15L359.387 221.188L313.424 258.766L302.555 254.418L347.897 217.15Z"/><path fill="#fff" stroke="#fff" stroke-linejoin="round" stroke-width="1.242" d="M336.779 212.803L348.207 216.84L302.493 254.418L291.064 250.381L336.779 212.803Z"/><path stroke="#8C5FFF" stroke-linejoin="round" stroke-width="1.242" d="M325.226 208.455L336.717 212.803L291.315 250.07L280.505 246.033L325.226 208.455Z"/><path fill="#fff" stroke="#fff" stroke-linejoin="round" stroke-width="1.242" d="M313.735 204.417L325.226 208.455L280.194 246.033L268.083 241.685L313.735 204.417Z"/><path stroke="#8C5FFF" stroke-linejoin="round" stroke-width="1.242" d="M302.244 200.38L313.735 204.417L268.083 241.685L257.213 237.337L302.244 200.38Z"/><path fill="#fff" stroke="#fff" stroke-linejoin="round" stroke-width="1.242" d="M291.064 196.343L302.555 200.38L256.902 237.337L245.722 233.61L291.064 196.343Z"/><path stroke="#8C5FFF" stroke-linejoin="round" stroke-width="1.242" d="M279.573 192.306L291.064 196.343L245.722 233.3L234.542 229.262L279.573 192.306Z"/><path fill="#fff" stroke="#fff" stroke-linejoin="round" stroke-width="1.242" d="M268.455 187.958L279.884 191.995L234.542 229.262L223.051 225.225L268.455 187.958Z"/><path stroke="#8C5FFF" stroke-linejoin="round" stroke-width="1.242" d="M256.902 183.61L268.393 187.958L222.992 225.225L212.182 221.188L256.902 183.61Z"/><path fill="#fff" stroke="#fff" stroke-linejoin="round" stroke-width="1.242" d="M245.101 179.573L256.592 183.61L212.181 221.188L200.07 216.529L245.101 179.573Z"/><path stroke="#8C5FFF" stroke-linejoin="round" stroke-width="1.242" d="M233.61 175.535L245.101 179.573L199.759 216.529L188.579 212.492L233.61 175.535Z"/><path fill="#fff" stroke="#fff" stroke-linejoin="round" stroke-width="1.242" d="M222.492 171.188L233.921 175.225L188.579 212.492L177.088 208.455L222.492 171.188Z"/><path fill="#E7DDFF" stroke="#E7DDFF" stroke-linejoin="round" stroke-width="1.242" d="M536.097 250.381L564.979 234.231L565.911 287.648L536.097 303.176V250.381Z"/><path fill="#7149D7" stroke="#7149D7" stroke-linejoin="round" stroke-width="1.242" d="M533.612 249.449L536.097 250.691V303.176L533.612 301.934V249.449Z"/><path fill="#5A37B5" stroke="#5A37B5" stroke-linejoin="round" stroke-width="1.242" d="M533.612 249.449L536.097 250.691L565.911 234.231L563.426 233.3L533.612 249.449Z"/><path fill="#5A37B5" stroke="#5A37B5" stroke-linejoin="round" stroke-width="1.242" d="M536.097 263.113V265.598L565.911 249.138L563.426 248.207L536.097 263.113Z"/><path fill="#5A37B5" stroke="#5A37B5" stroke-linejoin="round" stroke-width="1.242" d="M563.737 235.784L565.91 234.542V287.648L563.737 286.406V235.784Z"/><path fill="#5A37B5" stroke="#5A37B5" stroke-linejoin="round" stroke-width="1.242" d="M536.407 303.176L565.6 287.648L563.737 286.406L536.407 300.691V303.176Z"/><path fill="#7149D7" stroke="#7149D7" stroke-linejoin="round" stroke-width="1.242" d="M536.097 269.014V265.598L565.911 249.138V252.244L536.097 269.014Z"/><path fill="#7149D7" stroke="#7149D7" stroke-linejoin="round" stroke-width="1.242" d="M549.761 293.7V261.561L552.556 259.87V292.306L549.761 293.7Z"/><path fill="#5A37B5" stroke="#5A37B5" stroke-linejoin="round" stroke-width="1.242" d="M548.209 294.791L550.072 293.583V262.492L548.209 263.398V294.791Z"/><path fill="#E2D8FA" stroke="#E2D8FA" stroke-linejoin="round" stroke-width="1.242" d="M592.308 222.43L621.19 206.281L622.122 259.697L592.308 275.225V222.43Z"/><path fill="#7149D7" stroke="#7149D7" stroke-linejoin="round" stroke-width="1.242" d="M589.824 221.498L592.308 222.741V275.225L589.824 273.983V221.498Z"/><path fill="#5A37B5" stroke="#5A37B5" stroke-linejoin="round" stroke-width="1.242" d="M589.824 221.498L592.308 222.741L622.122 206.281L619.638 205.349L589.824 221.498Z"/><path fill="#5A37B5" stroke="#5A37B5" stroke-linejoin="round" stroke-width="1.242" d="M592.308 235.163V237.648L622.122 221.188L619.638 220.256L592.308 235.163Z"/><path fill="#5A37B5" stroke="#5A37B5" stroke-linejoin="round" stroke-width="1.242" d="M619.948 207.834L622.122 206.591V259.697L619.948 258.455V207.834Z"/><path fill="#5A37B5" stroke="#5A37B5" stroke-linejoin="round" stroke-width="1.242" d="M592.619 275.225L621.812 259.697L619.948 258.455L592.619 272.741V275.225Z"/><path fill="#7149D7" stroke="#7149D7" stroke-linejoin="round" stroke-width="1.242" d="M592.308 241.064V237.647L622.122 221.188V224.293L592.308 241.064Z"/><path fill="#7149D7" stroke="#7149D7" stroke-linejoin="round" stroke-width="1.242" d="M605.973 265.749V233.61L608.768 231.919V264.356L605.973 265.749Z"/><path fill="#5A37B5" stroke="#5A37B5" stroke-linejoin="round" stroke-width="1.242" d="M604.42 266.84L606.284 265.633V234.542L604.42 235.448V266.84Z"/><path fill="#72ED55" stroke="#72ED55" stroke-linejoin="round" stroke-width="1.092" d="M371.189 368.115L429.06 388.861L456.904 373.574L399.032 352.555L371.189 368.115Z"/><path fill="#4AD429" stroke="#4AD429" stroke-linejoin="round" stroke-width="1.092" d="M429.06 410.699V388.861L456.904 373.574V395.413L429.06 410.699Z"/><path fill="#77FF57" stroke="#77FF57" stroke-linejoin="round" stroke-width="1.092" d="M429.06 410.699V388.861L371.189 368.115V389.953L429.06 410.699Z"/><path fill="#89FA6E" stroke="#89FA6E" stroke-linejoin="round" stroke-width="1.092" d="M1 221.81L58.8712 242.556L86.7149 227.269L28.8437 206.25L1 221.81Z"/><path fill="#39AD1D" stroke="#39AD1D" stroke-linejoin="round" stroke-width="1.092" d="M58.8711 264.394V242.556L86.7148 227.27V249.108L58.8711 264.394Z"/><path fill="#6ED356" stroke="#6ED356" stroke-linejoin="round" stroke-width="1.092" d="M58.8712 264.395V242.556L1 221.81V243.648L58.8712 264.395Z"/><path fill="#89FA6E" stroke="#89FA6E" stroke-linejoin="round" stroke-width=".799" d="M15.907 203.072L58.262 218.256L78.6403 207.068L36.2853 191.685L15.907 203.072Z"/><path fill="#39AD1D" stroke="#39AD1D" stroke-linejoin="round" stroke-width=".799" d="M58.262 234.239V218.256L78.6403 207.068V223.051L58.262 234.239Z"/><path fill="#6ED356" stroke="#6ED356" stroke-linejoin="round" stroke-width=".799" d="M58.262 234.239V218.256L15.907 203.073V219.056L58.262 234.239Z"/><path fill="#72ED55" stroke="#72ED55" stroke-linejoin="round" stroke-width=".754" d="M387.338 353.978L427.281 368.297L446.499 357.746L406.556 343.238L387.338 353.978Z"/><path fill="#4AD429" stroke="#4AD429" stroke-linejoin="round" stroke-width=".754" d="M427.281 383.37V368.297L446.499 357.746V372.819L427.281 383.37Z"/><path fill="#77FF57" stroke="#77FF57" stroke-linejoin="round" stroke-width=".754" d="M427.281 383.37V368.297L387.338 353.978V369.051L427.281 383.37Z"/><path fill="#72ED55" stroke="#72ED55" stroke-linejoin="round" stroke-width=".831" d="M79.2614 274.14L123.294 289.926L144.479 278.294L100.447 262.302L79.2614 274.14Z"/><path fill="#4AD429" stroke="#4AD429" stroke-linejoin="round" stroke-width=".831" d="M123.294 306.542V289.926L144.479 278.294V294.91L123.294 306.542Z"/><path fill="#77FF57" stroke="#77FF57" stroke-linejoin="round" stroke-width=".831" d="M123.294 306.542V289.926L79.2612 274.14V290.756L123.294 306.542Z"/><path fill="#3C9B26" stroke="#3C9B26" stroke-linejoin="round" stroke-width="1.242" d="M748.52 270.567V263.735L437.649 433.301V440.754L748.52 270.567Z"/><path fill="#AEFF9B" stroke="#AEFF9B" stroke-linejoin="round" stroke-width="1.242" d="M437.649 433.301L43.2363 290.132V297.586L437.649 440.754V433.301Z"/><path fill="#DEA63A" stroke="#DEA63A" stroke-linejoin="round" stroke-width="1.242" d="M635.476 457.525V394.17L609.7 408.456V471.5L635.476 457.525Z"/><path fill="#F3C160" stroke="#F3C160" stroke-linejoin="round" stroke-width="1.242" d="M580.196 397.897L609.7 408.456V471.189L580.196 460.32V397.897Z"/><path fill="#72ED55" stroke="#72ED55" stroke-linejoin="round" stroke-width="1.242" d="M605.041 399.76L699.762 348.518L601.004 312.493L507.214 364.046L605.041 399.76Z"/><path fill="#4AD529" stroke="#4AD529" stroke-linejoin="round" stroke-width="1.242" d="M605.041 434.543V399.76L699.452 348.518V383.301L605.041 434.543Z"/><path fill="#77FF57" stroke="#77FF57" stroke-linejoin="round" stroke-width="1.242" d="M605.041 434.543V399.76L507.214 364.046V398.829L605.041 434.543Z"/><path fill="#72ED55" stroke="#72ED55" stroke-linejoin="round" stroke-width=".888" d="M604.802 363.399L672.122 326.468L601.915 301.002L534.854 337.863L604.802 363.399Z"/><path fill="#52D033" stroke="#52D033" stroke-linejoin="round" stroke-width=".888" d="M604.802 388.27V363.399L672.307 326.76V351.63L604.802 388.27Z"/><path fill="#77FF57" stroke="#77FF57" stroke-linejoin="round" stroke-width=".888" d="M604.802 388.27V363.399L534.854 337.863V362.733L604.802 388.27Z"/><path fill="#94FF7B" stroke="#94FF7B" stroke-linejoin="round" stroke-width=".578" d="M605.873 337.911L649.98 314.05L603.993 297.275L560.32 321.281L605.873 337.911Z"/><path fill="#4AD429" stroke="#4AD429" stroke-linejoin="round" stroke-width=".578" d="M605.873 354.108V337.911L649.836 314.05V330.247L605.873 354.108Z"/><path fill="#77FF57" stroke="#77FF57" stroke-linejoin="round" stroke-width=".578" d="M605.873 354.108V337.911L560.32 321.281V337.478L605.873 354.108Z"/><path fill="#72ED55" stroke="#72ED55" stroke-linejoin="round" stroke-width="1.092" d="M726.471 295.987L784.342 316.733L812.186 301.446L754.314 280.427L726.471 295.987Z"/><path fill="#4AD429" stroke="#4AD429" stroke-linejoin="round" stroke-width="1.092" d="M784.342 338.571V316.733L812.185 301.447V323.285L784.342 338.571Z"/><path fill="#77FF57" stroke="#77FF57" stroke-linejoin="round" stroke-width="1.092" d="M784.342 338.571V316.733L726.471 295.987V317.825L784.342 338.571Z"/><path fill="#72ED55" stroke="#72ED55" stroke-linejoin="round" stroke-width=".825" d="M738.482 278.539L782.225 294.221L803.271 282.666L759.528 266.778L738.482 278.539Z"/><path fill="#52D033" stroke="#52D033" stroke-linejoin="round" stroke-width=".825" d="M782.225 310.728V294.221L803.271 282.666V299.173L782.225 310.728Z"/><path fill="#77FF57" stroke="#77FF57" stroke-linejoin="round" stroke-width=".825" d="M782.225 310.728V294.221L738.482 278.539V295.046L782.225 310.728Z"/><path fill="#94FF7B" stroke="#94FF7B" stroke-linejoin="round" stroke-width=".543" d="M750.073 265.823L778.861 276.143L792.712 268.538L763.924 258.083L750.073 265.823Z"/><path fill="#4AD429" stroke="#4AD429" stroke-linejoin="round" stroke-width=".543" d="M778.861 287.006V276.143L792.712 268.539V279.402L778.861 287.006Z"/><path fill="#77FF57" stroke="#77FF57" stroke-linejoin="round" stroke-width=".543" d="M778.861 287.006V276.143L750.073 265.823V276.686L778.861 287.006Z"/></g></svg>