<svg width="393" height="460" viewBox="0 0 393 460" fill="none" xmlns="http://www.w3.org/2000/svg">
<g opacity="0.3">
<g filter="url(#filter0_f_42_201)">
<path fill-rule="evenodd" clip-rule="evenodd" d="M187.087 22.2316C191.487 19.2835 197.25 19.2541 201.68 22.1572L330.652 106.667C334.29 109.051 336.492 113.069 336.527 117.388C336.561 121.706 334.424 125.759 330.824 128.2L212.078 206.912C206.102 210.964 197.939 209.454 193.845 203.54C189.751 197.625 191.276 189.546 197.252 185.494L299.934 117.675L194.521 48.6026L59.7688 138.89L202.645 237.55L354.607 137.245C358.632 134.589 363.807 134.34 368.072 136.599C372.337 138.858 375 143.257 375 148.045V316.305C375 320.659 372.795 324.722 369.129 327.127L201.684 436.937C197.657 439.577 192.49 439.814 188.235 437.552C183.979 435.29 181.324 430.896 181.324 426.115V313.85L46.2315 222.539V325.575L152.265 402.635C158.103 406.879 159.361 415.003 155.074 420.782C150.786 426.56 142.578 427.805 136.739 423.562L25.3529 342.611C21.9877 340.165 20 336.28 20 332.147V197.955C20 193.141 22.6911 188.723 26.9917 186.476C31.2923 184.228 36.4964 184.52 40.5125 187.235L201.836 296.276C205.415 298.695 207.555 302.707 207.555 306.996V401.942L348.768 309.335V172.305L209.756 264.063C205.266 267.026 199.4 266.965 194.974 263.909L29.1086 149.375C25.566 146.929 23.4675 142.913 23.4979 138.638C23.5282 134.362 25.6836 130.376 29.2607 127.979L187.087 22.2316Z" fill="url(#paint0_radial_42_201)"/>
</g>
<path fill-rule="evenodd" clip-rule="evenodd" d="M187.087 22.2316C191.487 19.2835 197.25 19.2541 201.68 22.1572L330.652 106.667C334.29 109.051 336.492 113.069 336.527 117.388C336.561 121.706 334.424 125.759 330.824 128.2L212.078 206.912C206.102 210.964 197.939 209.454 193.845 203.54C189.751 197.625 191.276 189.546 197.252 185.494L299.934 117.675L194.521 48.6026L59.7688 138.89L202.645 237.55L354.607 137.245C358.632 134.589 363.807 134.34 368.072 136.599C372.337 138.858 375 143.257 375 148.045V316.305C375 320.659 372.795 324.722 369.129 327.127L201.684 436.937C197.657 439.577 192.49 439.814 188.235 437.552C183.979 435.29 181.324 430.896 181.324 426.115V313.85L46.2315 222.539V325.575L152.265 402.635C158.103 406.879 159.361 415.003 155.074 420.782C150.786 426.56 142.578 427.805 136.739 423.562L25.3529 342.611C21.9877 340.165 20 336.28 20 332.147V197.955C20 193.141 22.6911 188.723 26.9917 186.476C31.2923 184.228 36.4964 184.52 40.5125 187.235L201.836 296.276C205.415 298.695 207.555 302.707 207.555 306.996V401.942L348.768 309.335V172.305L209.756 264.063C205.266 267.026 199.4 266.965 194.974 263.909L29.1086 149.375C25.566 146.929 23.4675 142.913 23.4979 138.638C23.5282 134.362 25.6836 130.376 29.2607 127.979L187.087 22.2316Z" fill="url(#paint1_radial_42_201)"/>
</g>
<defs>
<filter id="filter0_f_42_201" x="0" y="0" width="395" height="459.096" filterUnits="userSpaceOnUse" color-interpolation-filters="sRGB">
<feFlood flood-opacity="0" result="BackgroundImageFix"/>
<feBlend mode="normal" in="SourceGraphic" in2="BackgroundImageFix" result="shape"/>
<feGaussianBlur stdDeviation="10" result="effect1_foregroundBlur_42_201"/>
</filter>
<radialGradient id="paint0_radial_42_201" cx="0" cy="0" r="1" gradientUnits="userSpaceOnUse" gradientTransform="translate(197.5 185.12) rotate(90.1143) scale(272.088 221.981)">
<stop stop-color="white" stop-opacity="0.85"/>
<stop offset="1" stop-color="#4E11EC"/>
</radialGradient>
<radialGradient id="paint1_radial_42_201" cx="0" cy="0" r="1" gradientUnits="userSpaceOnUse" gradientTransform="translate(197.5 185.12) rotate(90.1143) scale(272.088 221.981)">
<stop stop-color="white" stop-opacity="0.85"/>
<stop offset="1" stop-color="#4E11EC"/>
</radialGradient>
</defs>
</svg>
