<svg width="65" height="77" viewBox="0 0 65 77" fill="none" xmlns="http://www.w3.org/2000/svg">
<path fill-rule="evenodd" clip-rule="evenodd" d="M30.4217 0.406308C31.2228 -0.130462 32.272 -0.135811 33.0787 0.392761L56.5607 15.7795C57.2231 16.2136 57.624 16.9452 57.6303 17.7315C57.6366 18.5178 57.2474 19.2556 56.5921 19.7L34.9718 34.0312C33.8838 34.769 32.3975 34.4941 31.6521 33.4172C30.9067 32.3404 31.1844 30.8694 32.2724 30.1316L50.9678 17.7838L31.7752 5.20771L7.24075 21.6464L33.2544 39.6095L60.9222 21.3469C61.655 20.8633 62.5972 20.8181 63.3738 21.2293C64.1504 21.6406 64.6352 22.4415 64.6352 23.3132V53.9486C64.6352 54.7412 64.2338 55.4811 63.5662 55.9189L33.0794 75.9121C32.3463 76.3929 31.4055 76.4359 30.6306 76.0241C29.8558 75.6123 29.3724 74.8123 29.3724 73.9418V53.5016L4.776 36.8765V55.6363L24.0816 69.6668C25.1446 70.4394 25.3736 71.9186 24.593 72.9708C23.8124 74.0229 22.3178 74.2495 21.2548 73.4769L0.974614 58.7381C0.361905 58.2928 0 57.5854 0 56.833V32.4004C0 31.524 0.489962 30.7196 1.27298 30.3104C2.056 29.9012 3.00352 29.9544 3.73474 30.4486L33.1071 50.3019C33.7587 50.7423 34.1484 51.4728 34.1484 52.2537V69.5406L59.8592 52.6794V27.7304L34.5491 44.4367C33.7316 44.9763 32.6636 44.9652 31.8577 44.4088L1.65841 23.5554C1.0134 23.11 0.631328 22.3788 0.636859 21.6005C0.64239 20.8221 1.03482 20.0963 1.6861 19.6599L30.4217 0.406308Z" fill="url(#paint0_radial_42_51)"/>
<defs>
<radialGradient id="paint0_radial_42_51" cx="0" cy="0" r="1" gradientUnits="userSpaceOnUse" gradientTransform="translate(32.3176 30.0636) rotate(90.1143) scale(49.5394 40.4164)">
<stop stop-color="white" stop-opacity="0.85"/>
<stop offset="1" stop-color="#4E11EC"/>
</radialGradient>
</defs>
</svg>
