<svg xmlns="http://www.w3.org/2000/svg" width="45" height="45" fill="none" viewBox="0 0 45 45"><path fill="#373B58" d="M18.75 37.5C17.7554 37.5 16.8016 37.1049 16.0983 36.4016C15.3951 35.6984 15 34.7446 15 33.75C15 32.7554 15.3951 31.8016 16.0983 31.0984C16.8016 30.3951 17.7554 30 18.75 30C19.7445 30 20.6984 30.3951 21.4016 31.0984C22.1049 31.8016 22.5 32.7554 22.5 33.75C22.5 34.7446 22.1049 35.6984 21.4016 36.4016C20.6984 37.1049 19.7445 37.5 18.75 37.5ZM31.875 37.5C30.8804 37.5 29.9266 37.1049 29.2233 36.4016C28.5201 35.6984 28.125 34.7446 28.125 33.75C28.125 32.7554 28.5201 31.8016 29.2233 31.0984C29.9266 30.3951 30.8804 30 31.875 30C32.8695 30 33.8234 30.3951 34.5266 31.0984C35.2299 31.8016 35.625 32.7554 35.625 33.75C35.625 34.7446 35.2299 35.6984 34.5266 36.4016C33.8234 37.1049 32.8695 37.5 31.875 37.5ZM7.42874 11.1056C6.96067 11.0905 6.51681 10.894 6.19105 10.5575C5.86528 10.2211 5.68314 9.77113 5.68314 9.30281C5.68314 8.8345 5.86528 8.38454 6.19105 8.0481C6.51681 7.71165 6.96067 7.5151 7.42874 7.5H9.58686C11.2781 7.5 12.7406 8.67375 13.1081 10.3238L15.4575 20.9025C15.825 22.5525 17.2875 23.7262 18.9787 23.7262H33.0637L35.7675 12.9075H18.2456C17.7819 12.8863 17.3443 12.6873 17.0236 12.3517C16.703 12.0161 16.5241 11.5698 16.5241 11.1056C16.5241 10.6415 16.703 10.1952 17.0236 9.85959C17.3443 9.52399 17.7819 9.32491 18.2456 9.30375H35.7675C36.3156 9.30359 36.8566 9.4284 37.3492 9.66869C37.8419 9.90898 38.2732 10.2584 38.6106 10.6905C38.9479 11.1225 39.1822 11.6258 39.2959 12.162C39.4095 12.6982 39.3993 13.2533 39.2662 13.785L36.5625 24.6C36.3676 25.3804 35.9173 26.0732 35.2833 26.5682C34.6494 27.0632 33.8681 27.332 33.0637 27.3319H18.9787C17.3377 27.3321 15.7457 26.7726 14.4656 25.7458C13.1856 24.719 12.294 23.2863 11.9381 21.6844L9.58686 11.1056H7.42874Z"/></svg>